<svg xmlns="http://www.w3.org/2000/svg" version="1.1" width="100%" height="100%" x="0" y="0" viewBox="0 0 24 24" style="enable-background:new 0 0 512 512" xml:space="preserve" xmlns:xml="http://www.w3.org/XML/1998/namespace" class="" preserveAspectRatio="xMidYMid">
  <g>
    <path d="m22 12c0 5.5228-4.4772 10-10 10s-10-4.4772-10-10 4.4772-10 10-10 10 4.4772 10 10z" fill="#ffffff" data-original="#4ade80" class=""/>
    <path d="m15.3535 10.3535-4 4c-.0977.0977-.2256.1465-.3535.1465s-.2559-.0488-.3535-.1465l-2-2c-.1953-.1953-.1953-.5117 0-.707s.5117-.1953.707 0l1.6465 1.6465 3.6465-3.6465c.1953-.1953.5117-.1953.707 0s.1953.5117 0 .707z" fill="#198754" data-original="#ffffff" class=""/>
    <path d="m12 1.5c-5.7896 0-10.5 4.7104-10.5 10.5s4.7104 10.5 10.5 10.5 10.5-4.7104 10.5-10.5-4.7104-10.5-10.5-10.5zm0 20c-5.2383 0-9.5-4.2617-9.5-9.5s4.2617-9.5 9.5-9.5 9.5 4.2617 9.5 9.5-4.2617 9.5-9.5 9.5z" fill="#198754" data-original="#0f172a" class=""/>
  </g>
</svg>
