<svg xmlns="http://www.w3.org/2000/svg" width="100%" zoomAndPan="magnify" viewBox="0 0 768 767.999994" height="100%" preserveAspectRatio="xMidYMid" version="1.0">
  <defs>
    <clipPath id="6de8237b5a">
      <path d="M 206.066406 257 L 561.566406 257 L 561.566406 511.25 L 206.066406 511.25 Z M 206.066406 257" clip-rule="nonzero"/>
    </clipPath>
  </defs>
  <path fill="#f0f0f0" d="M 768 384 C 768 390.285156 767.84375 396.566406 767.539062 402.84375 C 767.230469 409.117188 766.765625 415.382812 766.152344 421.636719 C 765.535156 427.894531 764.765625 434.128906 763.84375 440.34375 C 762.921875 446.5625 761.847656 452.75 760.621094 458.914062 C 759.394531 465.078125 758.019531 471.207031 756.492188 477.304688 C 754.964844 483.402344 753.289062 489.457031 751.464844 495.46875 C 749.640625 501.484375 747.667969 507.449219 745.550781 513.367188 C 743.433594 519.28125 741.175781 525.144531 738.769531 530.949219 C 736.363281 536.757812 733.820312 542.5 731.132812 548.179688 C 728.445312 553.863281 725.621094 559.472656 722.65625 565.015625 C 719.695312 570.558594 716.597656 576.023438 713.367188 581.414062 C 710.136719 586.804688 706.777344 592.113281 703.285156 597.339844 C 699.792969 602.5625 696.175781 607.699219 692.429688 612.75 C 688.6875 617.796875 684.824219 622.75 680.835938 627.605469 C 676.847656 632.464844 672.746094 637.222656 668.523438 641.878906 C 664.304688 646.535156 659.972656 651.085938 655.527344 655.527344 C 651.085938 659.972656 646.535156 664.304688 641.878906 668.523438 C 637.222656 672.746094 632.464844 676.847656 627.605469 680.835938 C 622.75 684.824219 617.796875 688.6875 612.75 692.429688 C 607.699219 696.175781 602.5625 699.792969 597.339844 703.285156 C 592.113281 706.777344 586.804688 710.136719 581.414062 713.367188 C 576.023438 716.597656 570.558594 719.695312 565.015625 722.65625 C 559.472656 725.621094 553.863281 728.445312 548.179688 731.132812 C 542.5 733.820312 536.757812 736.363281 530.949219 738.769531 C 525.144531 741.175781 519.28125 743.433594 513.367188 745.550781 C 507.449219 747.667969 501.484375 749.640625 495.46875 751.464844 C 489.457031 753.289062 483.398438 754.964844 477.304688 756.492188 C 471.207031 758.019531 465.078125 759.394531 458.914062 760.621094 C 452.75 761.847656 446.5625 762.921875 440.34375 763.84375 C 434.128906 764.765625 427.894531 765.535156 421.636719 766.152344 C 415.382812 766.765625 409.117188 767.230469 402.84375 767.539062 C 396.566406 767.847656 390.285156 768 384 768 C 377.714844 768 371.433594 767.847656 365.15625 767.539062 C 358.882812 767.230469 352.617188 766.765625 346.363281 766.152344 C 340.105469 765.535156 333.871094 764.765625 327.65625 763.84375 C 321.4375 762.921875 315.25 761.847656 309.085938 760.621094 C 302.921875 759.394531 296.792969 758.019531 290.695312 756.492188 C 284.597656 754.964844 278.542969 753.289062 272.53125 751.464844 C 266.515625 749.640625 260.550781 747.667969 254.632812 745.550781 C 248.71875 743.433594 242.855469 741.175781 237.050781 738.769531 C 231.242188 736.363281 225.5 733.820312 219.820312 731.132812 C 214.136719 728.445312 208.527344 725.621094 202.984375 722.65625 C 197.441406 719.695312 191.976562 716.597656 186.585938 713.367188 C 181.195312 710.136719 175.886719 706.777344 170.660156 703.285156 C 165.4375 699.792969 160.300781 696.175781 155.25 692.429688 C 150.203125 688.6875 145.25 684.824219 140.394531 680.835938 C 135.535156 676.847656 130.777344 672.746094 126.121094 668.523438 C 121.464844 664.304688 116.914062 659.972656 112.472656 655.527344 C 108.027344 651.085938 103.695312 646.535156 99.476562 641.878906 C 95.253906 637.222656 91.152344 632.464844 87.164062 627.605469 C 83.175781 622.75 79.3125 617.796875 75.566406 612.75 C 71.824219 607.699219 68.207031 602.5625 64.714844 597.339844 C 61.222656 592.113281 57.863281 586.804688 54.632812 581.414062 C 51.402344 576.023438 48.304688 570.558594 45.34375 565.015625 C 42.378906 559.472656 39.554688 553.863281 36.867188 548.179688 C 34.179688 542.5 31.636719 536.757812 29.230469 530.949219 C 26.824219 525.144531 24.5625 519.28125 22.445312 513.367188 C 20.328125 507.449219 18.359375 501.484375 16.535156 495.46875 C 14.710938 489.457031 13.035156 483.398438 11.507812 477.304688 C 9.980469 471.207031 8.605469 465.078125 7.378906 458.914062 C 6.152344 452.75 5.078125 446.5625 4.15625 440.34375 C 3.234375 434.128906 2.464844 427.894531 1.847656 421.636719 C 1.234375 415.382812 0.769531 409.117188 0.460938 402.84375 C 0.152344 396.566406 0 390.285156 0 384 C 0 377.714844 0.152344 371.433594 0.460938 365.15625 C 0.769531 358.882812 1.234375 352.617188 1.847656 346.363281 C 2.464844 340.105469 3.234375 333.871094 4.15625 327.65625 C 5.078125 321.4375 6.152344 315.25 7.378906 309.085938 C 8.605469 302.921875 9.980469 296.792969 11.507812 290.695312 C 13.035156 284.597656 14.710938 278.542969 16.535156 272.53125 C 18.359375 266.515625 20.328125 260.550781 22.445312 254.632812 C 24.5625 248.71875 26.824219 242.855469 29.230469 237.050781 C 31.636719 231.242188 34.179688 225.5 36.867188 219.820312 C 39.554688 214.136719 42.378906 208.527344 45.34375 202.984375 C 48.304688 197.441406 51.402344 191.976562 54.632812 186.585938 C 57.863281 181.195312 61.222656 175.886719 64.714844 170.660156 C 68.207031 165.4375 71.824219 160.300781 75.566406 155.25 C 79.3125 150.203125 83.175781 145.25 87.164062 140.394531 C 91.152344 135.535156 95.253906 130.777344 99.476562 126.121094 C 103.695312 121.464844 108.027344 116.914062 112.472656 112.472656 C 116.914062 108.027344 121.464844 103.695312 126.121094 99.476562 C 130.777344 95.253906 135.535156 91.152344 140.394531 87.164062 C 145.25 83.175781 150.203125 79.3125 155.25 75.566406 C 160.300781 71.824219 165.4375 68.207031 170.660156 64.714844 C 175.886719 61.222656 181.195312 57.863281 186.585938 54.632812 C 191.976562 51.402344 197.441406 48.304688 202.984375 45.34375 C 208.527344 42.378906 214.136719 39.554688 219.820312 36.867188 C 225.5 34.179688 231.242188 31.636719 237.050781 29.230469 C 242.855469 26.824219 248.71875 24.5625 254.632812 22.445312 C 260.550781 20.328125 266.515625 18.359375 272.53125 16.535156 C 278.542969 14.710938 284.597656 13.035156 290.695312 11.507812 C 296.792969 9.980469 302.921875 8.605469 309.085938 7.378906 C 315.25 6.152344 321.4375 5.078125 327.65625 4.15625 C 333.871094 3.234375 340.105469 2.464844 346.363281 1.847656 C 352.617188 1.234375 358.882812 0.769531 365.15625 0.460938 C 371.433594 0.152344 377.714844 0 384 0 C 390.285156 0 396.566406 0.152344 402.84375 0.460938 C 409.117188 0.769531 415.382812 1.234375 421.636719 1.847656 C 427.894531 2.464844 434.128906 3.234375 440.34375 4.15625 C 446.5625 5.078125 452.75 6.152344 458.914062 7.378906 C 465.078125 8.605469 471.207031 9.980469 477.304688 11.507812 C 483.398438 13.035156 489.457031 14.710938 495.46875 16.535156 C 501.484375 18.359375 507.449219 20.328125 513.367188 22.445312 C 519.28125 24.5625 525.144531 26.824219 530.949219 29.230469 C 536.757812 31.636719 542.5 34.179688 548.179688 36.867188 C 553.863281 39.554688 559.472656 42.378906 565.015625 45.34375 C 570.558594 48.304688 576.023438 51.402344 581.414062 54.632812 C 586.804688 57.863281 592.113281 61.222656 597.339844 64.714844 C 602.5625 68.207031 607.699219 71.824219 612.75 75.566406 C 617.796875 79.3125 622.75 83.175781 627.605469 87.164062 C 632.464844 91.152344 637.222656 95.253906 641.878906 99.476562 C 646.535156 103.695312 651.085938 108.027344 655.527344 112.472656 C 659.972656 116.914062 664.304688 121.464844 668.523438 126.121094 C 672.746094 130.777344 676.847656 135.535156 680.835938 140.394531 C 684.824219 145.25 688.6875 150.203125 692.429688 155.25 C 696.175781 160.300781 699.792969 165.4375 703.285156 170.660156 C 706.777344 175.886719 710.136719 181.195312 713.367188 186.585938 C 716.597656 191.976562 719.695312 197.441406 722.65625 202.984375 C 725.621094 208.527344 728.445312 214.136719 731.132812 219.820312 C 733.820312 225.5 736.363281 231.242188 738.769531 237.050781 C 741.175781 242.855469 743.433594 248.71875 745.550781 254.632812 C 747.667969 260.550781 749.640625 266.515625 751.464844 272.53125 C 753.289062 278.542969 754.964844 284.597656 756.492188 290.695312 C 758.019531 296.792969 759.394531 302.921875 760.621094 309.085938 C 761.847656 315.25 762.921875 321.4375 763.84375 327.65625 C 764.765625 333.871094 765.535156 340.105469 766.152344 346.363281 C 766.765625 352.617188 767.230469 358.882812 767.539062 365.15625 C 767.84375 371.433594 768 377.714844 768 384 Z M 768 384" fill-opacity="1" fill-rule="nonzero"/>
  <g clip-path="url(#6de8237b5a)">
    <path fill="#000000" d="M 244.261719 257 C 223.242188 257 206.203125 274.046875 206.203125 295.136719 C 206.675781 352.96875 206.203125 414.175781 206.203125 473.113281 C 206.203125 493.410156 221.957031 509.835938 241.882812 511.050781 L 524.953125 511.25 C 545.25 510.429688 561.429688 493.675781 561.429688 473.113281 L 561.429688 288.582031 C 558.347656 270.605469 542.769531 257 523.964844 257 C 430.78125 257.042969 337.480469 257 244.261719 257 Z M 243.667969 277.058594 L 525.152344 277.058594 L 388.96875 413.523438 C 386.484375 416.011719 382.53125 416.011719 380.046875 413.523438 L 243.664062 277.058594 Z M 542.398438 286.792969 L 542.398438 471.722656 C 542.398438 482.738281 538.4375 488.964844 530.507812 491.1875 L 434.5625 394.851562 L 542.398438 286.796875 Z M 227.414062 287.585938 L 333.46875 393.859375 L 236.539062 490.988281 C 229.902344 488.742188 227.589844 483.390625 227.417969 476.089844 L 227.417969 287.589844 Z M 346.949219 407.160156 L 380.054688 440.53125 C 382.539062 443.023438 386.488281 443.023438 388.972656 440.53125 L 421.085938 408.351562 L 504.742188 492.179688 L 262.109375 492.179688 L 346.953125 407.164062 Z M 346.949219 407.160156" fill-opacity="1" fill-rule="nonzero"/>
  </g>
</svg>
