<svg xmlns="http://www.w3.org/2000/svg" version="1.1" width="100%" height="100%" x="0" y="0" viewBox="0 0 512 512" style="enable-background:new 0 0 512 512" xml:space="preserve" xmlns:xml="http://www.w3.org/XML/1998/namespace" preserveAspectRatio="xMidYMid">
  <g>
    <g>
      <path d="m123.281 149.75c-6.213 0-11.25 5.037-11.25 11.25v32.207h-39.781v-32.207c0-6.213-5.037-11.25-11.25-11.25s-11.25 5.037-11.25 11.25v90c0 6.213 5.037 11.25 11.25 11.25s11.25-5.037 11.25-11.25v-35.293h39.781v35.293c0 6.213 5.037 11.25 11.25 11.25s11.25-5.037 11.25-11.25v-90c0-6.213-5.036-11.25-11.25-11.25z" fill="#0b7cfe" data-original="#000000"/>
      <path d="m200.961 172.25c6.213 0 11.25-5.037 11.25-11.25s-5.037-11.25-11.25-11.25h-37.922c-6.213 0-11.25 5.037-11.25 11.25v90c0 6.213 5.037 11.25 11.25 11.25h37.922c6.213 0 11.25-5.037 11.25-11.25s-5.037-11.25-11.25-11.25h-26.672v-22.5h23.876c6.213 0 11.25-5.037 11.25-11.25s-5.037-11.25-11.25-11.25h-23.876v-22.5z" fill="#0b7cfe" data-original="#000000"/>
      <path d="m269.759 239.674c-.021 0-.043 0-.063 0-6.936.039-14.367.067-20.203.074v-78.748c0-6.213-5.037-11.25-11.25-11.25s-11.25 5.037-11.25 11.25v89.924c0 5.48 3.949 10.163 9.35 11.088.801.137 1.417.243 11.441.243 4.817 0 11.81-.024 22.036-.082 6.214-.035 11.222-5.1 11.188-11.313-.035-6.191-5.065-11.186-11.249-11.186z" fill="#0b7cfe" data-original="#000000"/>
      <path d="m337.516 239.674c-.021 0-.043 0-.063 0-6.936.039-14.366.067-20.202.074v-78.748c0-6.213-5.037-11.25-11.25-11.25s-11.25 5.037-11.25 11.25v89.924c0 5.48 3.949 10.164 9.352 11.088.8.137 1.417.243 11.437.243 4.817 0 11.809-.024 22.039-.082 6.214-.035 11.222-5.1 11.188-11.313-.038-6.191-5.067-11.186-11.251-11.186z" fill="#0b7cfe" data-original="#000000"/>
      <path d="m406 149.75c-31.017 0-56.25 25.234-56.25 56.25s25.233 56.25 56.25 56.25 56.25-25.234 56.25-56.25-25.233-56.25-56.25-56.25zm0 90c-18.609 0-33.75-15.14-33.75-33.75s15.141-33.75 33.75-33.75 33.75 15.14 33.75 33.75-15.141 33.75-33.75 33.75z" fill="#0b7cfe" data-original="#000000"/>
      <path d="m396 21h-280c-63.962 0-116 52.038-116 116v138c0 63.962 52.038 116 116 116h173.817l95.576 95.577c9.449 9.449 25.607 2.757 25.607-10.607v-85.938c56.903-7.38 101-56.152 101-115.032v-138c0-63.962-52.037-116-116-116zm86 254c0 47.42-38.579 85.97-86 85.97-8.284 0-15 6.716-15 15v63.787l-74.363-74.363c-2.813-2.813-6.628-4.393-10.607-4.393h-180.03c-47.42 0-86-38.58-86-86v-138.001c0-47.42 38.58-86 86-86h280c47.421 0 86 38.58 86 86z" fill="#0b7cfe" data-original="#000000"/>
    </g>
  </g>
</svg>
