<svg xmlns="http://www.w3.org/2000/svg" xmlns:xlink="http://www.w3.org/1999/xlink" width="270" zoomAndPan="magnify" viewBox="0 0 202.5 39.749999" height="53" preserveAspectRatio="xMidYMid meet" version="1.0"><defs><g/><clipPath id="65165e30aa"><path d="M 0.382812 0.839844 L 36.246094 0.839844 L 36.246094 36.703125 L 0.382812 36.703125 Z M 0.382812 0.839844 " clip-rule="nonzero"/></clipPath><clipPath id="626b9e2e5f"><path d="M 7 26 L 14 26 L 14 36.703125 L 7 36.703125 Z M 7 26 " clip-rule="nonzero"/></clipPath><clipPath id="0e6adaec1f"><path d="M 22 26 L 30 26 L 30 36.703125 L 22 36.703125 Z M 22 26 " clip-rule="nonzero"/></clipPath><clipPath id="fa0146f218"><path d="M 0.382812 0.839844 L 36.246094 0.839844 L 36.246094 36.703125 L 0.382812 36.703125 Z M 0.382812 0.839844 " clip-rule="nonzero"/></clipPath><clipPath id="0fac39395d"><path d="M 64 28 L 67 28 L 67 39.5 L 64 39.5 Z M 64 28 " clip-rule="nonzero"/></clipPath><clipPath id="d22fd12e26"><path d="M 95 28 L 99 28 L 99 39.5 L 95 39.5 Z M 95 28 " clip-rule="nonzero"/></clipPath><clipPath id="dfe94985cd"><path d="M 99 30 L 105 30 L 105 39.5 L 99 39.5 Z M 99 30 " clip-rule="nonzero"/></clipPath><clipPath id="314c5e1d3c"><path d="M 110 30 L 117 30 L 117 39.5 L 110 39.5 Z M 110 30 " clip-rule="nonzero"/></clipPath><clipPath id="a3d024264b"><path d="M 145 30 L 151 30 L 151 39.5 L 145 39.5 Z M 145 30 " clip-rule="nonzero"/></clipPath><clipPath id="1a4a9cf3ae"><path d="M 184 30 L 190 30 L 190 39.5 L 184 39.5 Z M 184 30 " clip-rule="nonzero"/></clipPath></defs><g clip-path="url(#65165e30aa)"><path fill="#f0f0f0" d="M 36.246094 18.769531 C 36.246094 19.359375 36.21875 19.945312 36.160156 20.527344 C 36.105469 21.113281 36.019531 21.691406 35.902344 22.269531 C 35.789062 22.84375 35.644531 23.414062 35.476562 23.976562 C 35.304688 24.539062 35.109375 25.089844 34.882812 25.632812 C 34.65625 26.175781 34.40625 26.707031 34.128906 27.222656 C 33.851562 27.742188 33.550781 28.246094 33.226562 28.734375 C 32.898438 29.222656 32.550781 29.691406 32.175781 30.144531 C 31.804688 30.601562 31.410156 31.035156 30.996094 31.449219 C 30.582031 31.863281 30.144531 32.257812 29.691406 32.632812 C 29.238281 33.003906 28.765625 33.355469 28.277344 33.679688 C 27.789062 34.007812 27.285156 34.308594 26.769531 34.585938 C 26.25 34.863281 25.722656 35.113281 25.179688 35.335938 C 24.636719 35.5625 24.082031 35.757812 23.519531 35.929688 C 22.960938 36.101562 22.390625 36.242188 21.8125 36.355469 C 21.238281 36.472656 20.65625 36.558594 20.074219 36.617188 C 19.488281 36.671875 18.902344 36.703125 18.316406 36.703125 C 17.730469 36.703125 17.144531 36.671875 16.558594 36.617188 C 15.972656 36.558594 15.394531 36.472656 14.816406 36.355469 C 14.242188 36.242188 13.671875 36.101562 13.109375 35.929688 C 12.546875 35.757812 11.996094 35.5625 11.453125 35.335938 C 10.910156 35.113281 10.382812 34.863281 9.863281 34.585938 C 9.34375 34.308594 8.84375 34.007812 8.355469 33.679688 C 7.867188 33.355469 7.394531 33.003906 6.941406 32.632812 C 6.488281 32.257812 6.050781 31.863281 5.636719 31.449219 C 5.222656 31.035156 4.828125 30.601562 4.453125 30.144531 C 4.082031 29.691406 3.734375 29.222656 3.40625 28.734375 C 3.082031 28.246094 2.777344 27.742188 2.5 27.222656 C 2.226562 26.707031 1.972656 26.175781 1.75 25.632812 C 1.523438 25.089844 1.328125 24.539062 1.15625 23.976562 C 0.984375 23.414062 0.84375 22.84375 0.730469 22.269531 C 0.613281 21.691406 0.527344 21.113281 0.472656 20.527344 C 0.414062 19.945312 0.382812 19.359375 0.382812 18.769531 C 0.382812 18.183594 0.414062 17.597656 0.472656 17.011719 C 0.527344 16.429688 0.613281 15.847656 0.730469 15.273438 C 0.84375 14.695312 0.984375 14.128906 1.15625 13.566406 C 1.328125 13.003906 1.523438 12.449219 1.75 11.90625 C 1.972656 11.367188 2.226562 10.835938 2.5 10.316406 C 2.777344 9.800781 3.082031 9.296875 3.40625 8.808594 C 3.734375 8.320312 4.082031 7.847656 4.453125 7.394531 C 4.828125 6.941406 5.222656 6.507812 5.636719 6.089844 C 6.050781 5.675781 6.488281 5.28125 6.941406 4.910156 C 7.394531 4.535156 7.867188 4.1875 8.355469 3.859375 C 8.84375 3.535156 9.34375 3.234375 9.863281 2.957031 C 10.382812 2.679688 10.910156 2.429688 11.453125 2.203125 C 11.996094 1.980469 12.546875 1.78125 13.109375 1.609375 C 13.671875 1.441406 14.242188 1.296875 14.816406 1.183594 C 15.394531 1.070312 15.972656 0.984375 16.558594 0.925781 C 17.144531 0.867188 17.730469 0.839844 18.316406 0.839844 C 18.902344 0.839844 19.488281 0.867188 20.074219 0.925781 C 20.65625 0.984375 21.238281 1.070312 21.8125 1.183594 C 22.390625 1.296875 22.960938 1.441406 23.519531 1.609375 C 24.082031 1.78125 24.636719 1.980469 25.179688 2.203125 C 25.722656 2.429688 26.25 2.679688 26.769531 2.957031 C 27.285156 3.234375 27.789062 3.535156 28.277344 3.859375 C 28.765625 4.1875 29.238281 4.535156 29.691406 4.910156 C 30.144531 5.28125 30.582031 5.675781 30.996094 6.089844 C 31.410156 6.507812 31.804688 6.941406 32.175781 7.394531 C 32.550781 7.847656 32.898438 8.320312 33.226562 8.808594 C 33.550781 9.296875 33.851562 9.800781 34.128906 10.316406 C 34.40625 10.835938 34.65625 11.367188 34.882812 11.90625 C 35.109375 12.449219 35.304688 13.003906 35.476562 13.566406 C 35.644531 14.128906 35.789062 14.695312 35.902344 15.273438 C 36.019531 15.847656 36.105469 16.429688 36.160156 17.011719 C 36.21875 17.597656 36.246094 18.183594 36.246094 18.769531 Z M 36.246094 18.769531 " fill-opacity="1" fill-rule="nonzero"/></g><path fill="#0b7cfe" d="M 4.089844 7.851562 C 2.683594 9.6875 1.621094 11.796875 1.003906 14.09375 L 10.332031 14.09375 Z M 4.089844 7.851562 " fill-opacity="1" fill-rule="nonzero"/><path fill="#0b7cfe" d="M 35.628906 14.09375 C 35.011719 11.796875 33.949219 9.6875 32.539062 7.851562 L 26.300781 14.09375 Z M 35.628906 14.09375 " fill-opacity="1" fill-rule="nonzero"/><path fill="#0b7cfe" d="M 1.003906 23.449219 C 1.621094 25.742188 2.683594 27.855469 4.089844 29.6875 L 10.332031 23.449219 Z M 1.003906 23.449219 " fill-opacity="1" fill-rule="nonzero"/><path fill="#0b7cfe" d="M 29.234375 4.546875 C 27.402344 3.136719 25.289062 2.074219 22.992188 1.457031 L 22.992188 10.785156 Z M 29.234375 4.546875 " fill-opacity="1" fill-rule="nonzero"/><g clip-path="url(#626b9e2e5f)"><path fill="#0b7cfe" d="M 7.398438 32.996094 C 9.230469 34.402344 11.34375 35.464844 13.636719 36.085938 L 13.636719 26.753906 Z M 7.398438 32.996094 " fill-opacity="1" fill-rule="nonzero"/></g><path fill="#0b7cfe" d="M 13.636719 1.457031 C 11.34375 2.074219 9.230469 3.136719 7.398438 4.546875 L 13.636719 10.785156 Z M 13.636719 1.457031 " fill-opacity="1" fill-rule="nonzero"/><g clip-path="url(#0e6adaec1f)"><path fill="#0b7cfe" d="M 22.992188 36.085938 C 25.289062 35.464844 27.402344 34.402344 29.234375 32.996094 L 22.992188 26.753906 Z M 22.992188 36.085938 " fill-opacity="1" fill-rule="nonzero"/></g><path fill="#0b7cfe" d="M 26.300781 23.449219 L 32.539062 29.6875 C 33.949219 27.855469 35.011719 25.742188 35.628906 23.449219 Z M 26.300781 23.449219 " fill-opacity="1" fill-rule="nonzero"/><g clip-path="url(#fa0146f218)"><path fill="#d80027" d="M 36.097656 16.429688 L 20.65625 16.429688 L 20.65625 0.992188 C 19.890625 0.890625 19.109375 0.839844 18.316406 0.839844 C 17.523438 0.839844 16.742188 0.890625 15.976562 0.992188 L 15.976562 16.429688 L 0.535156 16.429688 C 0.4375 17.195312 0.382812 17.976562 0.382812 18.769531 C 0.382812 19.5625 0.4375 20.34375 0.535156 21.109375 L 15.976562 21.109375 L 15.976562 36.550781 C 16.742188 36.648438 17.523438 36.703125 18.316406 36.703125 C 19.109375 36.703125 19.890625 36.648438 20.65625 36.550781 L 20.65625 21.109375 L 36.097656 21.109375 C 36.195312 20.34375 36.246094 19.5625 36.246094 18.769531 C 36.246094 17.976562 36.195312 17.195312 36.097656 16.429688 Z M 36.097656 16.429688 " fill-opacity="1" fill-rule="nonzero"/></g><path fill="#d80027" d="M 22.992188 23.449219 L 30.996094 31.449219 C 31.363281 31.082031 31.714844 30.699219 32.050781 30.296875 L 25.199219 23.449219 Z M 22.992188 23.449219 " fill-opacity="1" fill-rule="nonzero"/><path fill="#d80027" d="M 13.636719 23.449219 L 5.636719 31.449219 C 6.003906 31.816406 6.390625 32.167969 6.789062 32.503906 L 13.636719 25.652344 Z M 13.636719 23.449219 " fill-opacity="1" fill-rule="nonzero"/><path fill="#d80027" d="M 13.636719 14.09375 L 5.636719 6.089844 C 5.269531 6.457031 4.917969 6.84375 4.582031 7.242188 L 11.433594 14.09375 Z M 13.636719 14.09375 " fill-opacity="1" fill-rule="nonzero"/><path fill="#d80027" d="M 22.992188 14.09375 L 30.996094 6.089844 C 30.628906 5.722656 30.242188 5.371094 29.84375 5.035156 L 22.992188 11.886719 Z M 22.992188 14.09375 " fill-opacity="1" fill-rule="nonzero"/><g fill="#0b7cfe" fill-opacity="1"><g transform="translate(39.312847, 23.412642)"><g><path d="M 11.984375 0.328125 C 10.453125 0.328125 9.015625 0.0507812 7.671875 -0.5 C 6.328125 -1.0625 5.15625 -1.832031 4.15625 -2.8125 C 3.15625 -3.800781 2.367188 -4.957031 1.796875 -6.28125 C 1.234375 -7.613281 0.953125 -9.046875 0.953125 -10.578125 C 0.953125 -12.117188 1.238281 -13.546875 1.8125 -14.859375 C 2.394531 -16.171875 3.195312 -17.316406 4.21875 -18.296875 C 5.25 -19.285156 6.453125 -20.054688 7.828125 -20.609375 C 9.203125 -21.160156 10.675781 -21.4375 12.25 -21.4375 C 14.0625 -21.4375 15.707031 -21.101562 17.1875 -20.4375 C 18.675781 -19.78125 19.910156 -18.875 20.890625 -17.71875 L 17.6875 -14.53125 C 17.007812 -15.40625 16.210938 -16.0625 15.296875 -16.5 C 14.378906 -16.9375 13.347656 -17.15625 12.203125 -17.15625 C 10.960938 -17.15625 9.851562 -16.878906 8.875 -16.328125 C 7.894531 -15.785156 7.128906 -15.019531 6.578125 -14.03125 C 6.035156 -13.039062 5.765625 -11.890625 5.765625 -10.578125 C 5.765625 -9.265625 6.035156 -8.109375 6.578125 -7.109375 C 7.117188 -6.117188 7.851562 -5.34375 8.78125 -4.78125 C 9.71875 -4.226562 10.796875 -3.953125 12.015625 -3.953125 C 13.253906 -3.953125 14.304688 -4.179688 15.171875 -4.640625 C 16.035156 -5.109375 16.703125 -5.785156 17.171875 -6.671875 C 17.640625 -7.566406 17.875 -8.648438 17.875 -9.921875 L 20.984375 -7.828125 L 11.5625 -7.984375 L 11.5625 -11.953125 L 22.65625 -11.953125 L 22.65625 -11.265625 C 22.65625 -8.734375 22.203125 -6.601562 21.296875 -4.875 C 20.390625 -3.15625 19.132812 -1.859375 17.53125 -0.984375 C 15.925781 -0.109375 14.078125 0.328125 11.984375 0.328125 Z M 11.984375 0.328125 "/></g></g></g><g fill="#0b7cfe" fill-opacity="1"><g transform="translate(62.773414, 23.412642)"><g><path d="M 7.6875 0.296875 C 6.34375 0.296875 5.148438 -0.03125 4.109375 -0.6875 C 3.066406 -1.34375 2.238281 -2.238281 1.625 -3.375 C 1.019531 -4.507812 0.71875 -5.804688 0.71875 -7.265625 C 0.71875 -8.722656 1.019531 -10.019531 1.625 -11.15625 C 2.238281 -12.289062 3.066406 -13.1875 4.109375 -13.84375 C 5.148438 -14.5 6.34375 -14.828125 7.6875 -14.828125 C 8.65625 -14.828125 9.535156 -14.632812 10.328125 -14.25 C 11.117188 -13.875 11.757812 -13.351562 12.25 -12.6875 C 12.75 -12.019531 13.03125 -11.257812 13.09375 -10.40625 L 13.09375 -4.125 C 13.03125 -3.269531 12.753906 -2.507812 12.265625 -1.84375 C 11.773438 -1.175781 11.128906 -0.648438 10.328125 -0.265625 C 9.535156 0.109375 8.65625 0.296875 7.6875 0.296875 Z M 8.609375 -3.828125 C 9.585938 -3.828125 10.375 -4.148438 10.96875 -4.796875 C 11.5625 -5.441406 11.859375 -6.265625 11.859375 -7.265625 C 11.859375 -7.941406 11.722656 -8.535156 11.453125 -9.046875 C 11.191406 -9.566406 10.816406 -9.972656 10.328125 -10.265625 C 9.835938 -10.554688 9.273438 -10.703125 8.640625 -10.703125 C 8.003906 -10.703125 7.441406 -10.554688 6.953125 -10.265625 C 6.460938 -9.972656 6.070312 -9.566406 5.78125 -9.046875 C 5.488281 -8.535156 5.34375 -7.941406 5.34375 -7.265625 C 5.34375 -6.609375 5.484375 -6.019531 5.765625 -5.5 C 6.046875 -4.976562 6.4375 -4.566406 6.9375 -4.265625 C 7.4375 -3.972656 7.992188 -3.828125 8.609375 -3.828125 Z M 11.6875 0 L 11.6875 -3.921875 L 12.375 -7.4375 L 11.6875 -10.96875 L 11.6875 -14.53125 L 16.171875 -14.53125 L 16.171875 0 Z M 11.6875 0 "/></g></g></g><g fill="#0b7cfe" fill-opacity="1"><g transform="translate(80.555628, 23.412642)"><g><path d="M 7.796875 0.296875 C 6.421875 0.296875 5.203125 -0.03125 4.140625 -0.6875 C 3.078125 -1.34375 2.238281 -2.238281 1.625 -3.375 C 1.019531 -4.507812 0.71875 -5.804688 0.71875 -7.265625 C 0.71875 -8.722656 1.019531 -10.019531 1.625 -11.15625 C 2.238281 -12.289062 3.078125 -13.1875 4.140625 -13.84375 C 5.203125 -14.5 6.421875 -14.828125 7.796875 -14.828125 C 8.796875 -14.828125 9.695312 -14.632812 10.5 -14.25 C 11.3125 -13.875 11.976562 -13.351562 12.5 -12.6875 C 13.03125 -12.019531 13.328125 -11.257812 13.390625 -10.40625 L 13.390625 -4.28125 C 13.328125 -3.414062 13.035156 -2.640625 12.515625 -1.953125 C 12.003906 -1.265625 11.335938 -0.71875 10.515625 -0.3125 C 9.703125 0.09375 8.796875 0.296875 7.796875 0.296875 Z M 8.609375 -3.828125 C 9.265625 -3.828125 9.832031 -3.96875 10.3125 -4.25 C 10.789062 -4.539062 11.164062 -4.945312 11.4375 -5.46875 C 11.71875 -5.988281 11.859375 -6.585938 11.859375 -7.265625 C 11.859375 -7.941406 11.722656 -8.53125 11.453125 -9.03125 C 11.191406 -9.539062 10.816406 -9.945312 10.328125 -10.25 C 9.835938 -10.550781 9.273438 -10.703125 8.640625 -10.703125 C 8.003906 -10.703125 7.441406 -10.550781 6.953125 -10.25 C 6.460938 -9.945312 6.070312 -9.535156 5.78125 -9.015625 C 5.488281 -8.503906 5.34375 -7.921875 5.34375 -7.265625 C 5.34375 -6.609375 5.484375 -6.019531 5.765625 -5.5 C 6.046875 -4.976562 6.4375 -4.566406 6.9375 -4.265625 C 7.4375 -3.972656 7.992188 -3.828125 8.609375 -3.828125 Z M 16.171875 0 L 11.6875 0 L 11.6875 -3.921875 L 12.375 -7.4375 L 11.59375 -10.96875 L 11.59375 -21.703125 L 16.171875 -21.703125 Z M 16.171875 0 "/></g></g></g><g fill="#0b7cfe" fill-opacity="1"><g transform="translate(98.337842, 23.412642)"><g><path d="M 8.078125 0.328125 C 6.734375 0.328125 5.546875 0.0546875 4.515625 -0.484375 C 3.492188 -1.035156 2.691406 -1.796875 2.109375 -2.765625 C 1.535156 -3.734375 1.25 -4.84375 1.25 -6.09375 L 1.25 -14.53125 L 5.828125 -14.53125 L 5.828125 -6.15625 C 5.828125 -5.65625 5.910156 -5.222656 6.078125 -4.859375 C 6.253906 -4.503906 6.507812 -4.226562 6.84375 -4.03125 C 7.1875 -3.832031 7.597656 -3.734375 8.078125 -3.734375 C 8.753906 -3.734375 9.289062 -3.945312 9.6875 -4.375 C 10.082031 -4.800781 10.28125 -5.394531 10.28125 -6.15625 L 10.28125 -14.53125 L 14.859375 -14.53125 L 14.859375 -6.125 C 14.859375 -4.851562 14.566406 -3.734375 13.984375 -2.765625 C 13.410156 -1.796875 12.613281 -1.035156 11.59375 -0.484375 C 10.582031 0.0546875 9.410156 0.328125 8.078125 0.328125 Z M 8.078125 0.328125 "/></g></g></g><g fill="#0b7cfe" fill-opacity="1"><g transform="translate(114.446441, 23.412642)"><g><path d="M 1.609375 0 L 1.609375 -14.53125 L 6.1875 -14.53125 L 6.1875 0 Z M 10.90625 0 L 10.90625 -8.484375 C 10.90625 -9.222656 10.679688 -9.796875 10.234375 -10.203125 C 9.785156 -10.617188 9.234375 -10.828125 8.578125 -10.828125 C 8.117188 -10.828125 7.707031 -10.726562 7.34375 -10.53125 C 6.988281 -10.34375 6.707031 -10.078125 6.5 -9.734375 C 6.289062 -9.398438 6.1875 -8.984375 6.1875 -8.484375 L 4.421875 -9.265625 C 4.421875 -10.421875 4.671875 -11.410156 5.171875 -12.234375 C 5.671875 -13.066406 6.347656 -13.707031 7.203125 -14.15625 C 8.054688 -14.601562 9.023438 -14.828125 10.109375 -14.828125 C 11.117188 -14.828125 12.023438 -14.597656 12.828125 -14.140625 C 13.640625 -13.679688 14.285156 -13.039062 14.765625 -12.21875 C 15.242188 -11.40625 15.484375 -10.429688 15.484375 -9.296875 L 15.484375 0 Z M 20.203125 0 L 20.203125 -8.484375 C 20.203125 -9.222656 19.976562 -9.796875 19.53125 -10.203125 C 19.082031 -10.617188 18.53125 -10.828125 17.875 -10.828125 C 17.414062 -10.828125 17.003906 -10.726562 16.640625 -10.53125 C 16.285156 -10.34375 16.003906 -10.078125 15.796875 -9.734375 C 15.585938 -9.398438 15.484375 -8.984375 15.484375 -8.484375 L 12.859375 -8.84375 C 12.890625 -10.082031 13.179688 -11.144531 13.734375 -12.03125 C 14.285156 -12.914062 15.015625 -13.601562 15.921875 -14.09375 C 16.828125 -14.582031 17.847656 -14.828125 18.984375 -14.828125 C 20.097656 -14.828125 21.085938 -14.59375 21.953125 -14.125 C 22.816406 -13.65625 23.503906 -12.988281 24.015625 -12.125 C 24.523438 -11.257812 24.78125 -10.21875 24.78125 -9 L 24.78125 0 Z M 20.203125 0 "/></g></g></g><g fill="#0b7cfe" fill-opacity="1"><g transform="translate(140.536989, 23.412642)"><g><path d="M 1.609375 0 L 1.609375 -14.53125 L 6.1875 -14.53125 L 6.1875 0 Z M 3.921875 -16.53125 C 3.203125 -16.53125 2.609375 -16.773438 2.140625 -17.265625 C 1.671875 -17.753906 1.4375 -18.347656 1.4375 -19.046875 C 1.4375 -19.753906 1.671875 -20.347656 2.140625 -20.828125 C 2.609375 -21.304688 3.203125 -21.546875 3.921875 -21.546875 C 4.628906 -21.546875 5.210938 -21.304688 5.671875 -20.828125 C 6.128906 -20.347656 6.359375 -19.753906 6.359375 -19.046875 C 6.359375 -18.347656 6.128906 -17.753906 5.671875 -17.265625 C 5.210938 -16.773438 4.628906 -16.53125 3.921875 -16.53125 Z M 3.921875 -16.53125 "/></g></g></g><g fill="#6eaaf7" fill-opacity="1"><g transform="translate(41.269941, 37.067696)"><g><path d="M 6.9375 -7.640625 L 4.140625 -7.640625 L 4.140625 0 L 2.984375 0 L 2.984375 -7.640625 L 0.1875 -7.640625 L 0.1875 -8.625 L 6.9375 -8.625 Z M 6.9375 -7.640625 "/></g></g></g><g fill="#6eaaf7" fill-opacity="1"><g transform="translate(48.377331, 37.067696)"><g><path d="M 9.25 -6.09375 L 7.28125 0 L 6.4375 0 C 6.332031 0 6.257812 -0.0664062 6.21875 -0.203125 L 4.859375 -4.34375 C 4.828125 -4.425781 4.800781 -4.515625 4.78125 -4.609375 C 4.769531 -4.710938 4.753906 -4.804688 4.734375 -4.890625 C 4.710938 -4.804688 4.691406 -4.710938 4.671875 -4.609375 C 4.648438 -4.515625 4.625 -4.421875 4.59375 -4.328125 L 3.21875 -0.203125 C 3.1875 -0.0664062 3.109375 0 2.984375 0 L 2.171875 0 L 0.203125 -6.09375 L 1.046875 -6.09375 C 1.128906 -6.09375 1.195312 -6.070312 1.25 -6.03125 C 1.3125 -5.988281 1.351562 -5.9375 1.375 -5.875 L 2.53125 -1.953125 C 2.601562 -1.660156 2.660156 -1.382812 2.703125 -1.125 C 2.734375 -1.257812 2.769531 -1.394531 2.8125 -1.53125 C 2.851562 -1.664062 2.894531 -1.804688 2.9375 -1.953125 L 4.21875 -5.890625 C 4.238281 -5.953125 4.273438 -6.003906 4.328125 -6.046875 C 4.378906 -6.085938 4.441406 -6.109375 4.515625 -6.109375 L 4.984375 -6.109375 C 5.054688 -6.109375 5.117188 -6.085938 5.171875 -6.046875 C 5.222656 -6.003906 5.257812 -5.953125 5.28125 -5.890625 L 6.546875 -1.953125 C 6.585938 -1.804688 6.625 -1.664062 6.65625 -1.53125 C 6.695312 -1.394531 6.734375 -1.257812 6.765625 -1.125 C 6.785156 -1.257812 6.8125 -1.394531 6.84375 -1.53125 C 6.875 -1.664062 6.90625 -1.804688 6.9375 -1.953125 L 8.140625 -5.875 C 8.148438 -5.9375 8.179688 -5.988281 8.234375 -6.03125 C 8.296875 -6.070312 8.367188 -6.09375 8.453125 -6.09375 Z M 9.25 -6.09375 "/></g></g></g><g fill="#6eaaf7" fill-opacity="1"><g transform="translate(57.831795, 37.067696)"><g><path d="M 3.421875 -6.1875 C 3.859375 -6.1875 4.253906 -6.113281 4.609375 -5.96875 C 4.972656 -5.820312 5.28125 -5.609375 5.53125 -5.328125 C 5.78125 -5.054688 5.972656 -4.726562 6.109375 -4.34375 C 6.242188 -3.957031 6.3125 -3.523438 6.3125 -3.046875 C 6.3125 -2.566406 6.242188 -2.132812 6.109375 -1.75 C 5.972656 -1.363281 5.78125 -1.035156 5.53125 -0.765625 C 5.28125 -0.492188 4.972656 -0.285156 4.609375 -0.140625 C 4.253906 0.00390625 3.859375 0.078125 3.421875 0.078125 C 2.972656 0.078125 2.566406 0.00390625 2.203125 -0.140625 C 1.847656 -0.285156 1.539062 -0.492188 1.28125 -0.765625 C 1.03125 -1.035156 0.835938 -1.363281 0.703125 -1.75 C 0.566406 -2.132812 0.5 -2.566406 0.5 -3.046875 C 0.5 -3.523438 0.566406 -3.957031 0.703125 -4.34375 C 0.835938 -4.726562 1.03125 -5.054688 1.28125 -5.328125 C 1.539062 -5.609375 1.847656 -5.820312 2.203125 -5.96875 C 2.566406 -6.113281 2.972656 -6.1875 3.421875 -6.1875 Z M 3.421875 -0.75 C 4.015625 -0.75 4.457031 -0.953125 4.75 -1.359375 C 5.050781 -1.765625 5.203125 -2.328125 5.203125 -3.046875 C 5.203125 -3.765625 5.050781 -4.328125 4.75 -4.734375 C 4.457031 -5.140625 4.015625 -5.34375 3.421875 -5.34375 C 3.109375 -5.34375 2.835938 -5.289062 2.609375 -5.1875 C 2.390625 -5.082031 2.203125 -4.929688 2.046875 -4.734375 C 1.898438 -4.546875 1.789062 -4.304688 1.71875 -4.015625 C 1.644531 -3.722656 1.609375 -3.398438 1.609375 -3.046875 C 1.609375 -2.328125 1.753906 -1.765625 2.046875 -1.359375 C 2.347656 -0.953125 2.804688 -0.75 3.421875 -0.75 Z M 5.171875 -8.71875 L 3.765625 -7.171875 C 3.710938 -7.109375 3.660156 -7.0625 3.609375 -7.03125 C 3.554688 -7.007812 3.484375 -7 3.390625 -7 L 2.765625 -7 L 3.65625 -8.453125 C 3.707031 -8.546875 3.765625 -8.613281 3.828125 -8.65625 C 3.898438 -8.695312 4 -8.71875 4.125 -8.71875 Z M 5.171875 -8.71875 "/></g></g></g><g clip-path="url(#0fac39395d)"><g fill="#6eaaf7" fill-opacity="1"><g transform="translate(64.656335, 37.067696)"><g><path d="M 1.984375 -6.09375 L 1.984375 0.453125 C 1.984375 0.691406 1.945312 0.914062 1.875 1.125 C 1.8125 1.34375 1.707031 1.53125 1.5625 1.6875 C 1.425781 1.84375 1.25 1.960938 1.03125 2.046875 C 0.8125 2.140625 0.550781 2.1875 0.25 2.1875 C 0.125 2.1875 0.0078125 2.175781 -0.09375 2.15625 C -0.207031 2.132812 -0.316406 2.101562 -0.421875 2.0625 L -0.390625 1.484375 C -0.378906 1.453125 -0.363281 1.425781 -0.34375 1.40625 C -0.320312 1.394531 -0.296875 1.382812 -0.265625 1.375 C -0.234375 1.375 -0.191406 1.375 -0.140625 1.375 C -0.0976562 1.375 -0.0351562 1.375 0.046875 1.375 C 0.359375 1.375 0.578125 1.300781 0.703125 1.15625 C 0.835938 1.007812 0.90625 0.773438 0.90625 0.453125 L 0.90625 -6.09375 Z M 2.203125 -8 C 2.203125 -7.894531 2.179688 -7.796875 2.140625 -7.703125 C 2.097656 -7.617188 2.039062 -7.539062 1.96875 -7.46875 C 1.894531 -7.40625 1.8125 -7.351562 1.71875 -7.3125 C 1.632812 -7.269531 1.539062 -7.25 1.4375 -7.25 C 1.332031 -7.25 1.234375 -7.269531 1.140625 -7.3125 C 1.046875 -7.351562 0.960938 -7.40625 0.890625 -7.46875 C 0.828125 -7.539062 0.773438 -7.617188 0.734375 -7.703125 C 0.703125 -7.796875 0.6875 -7.894531 0.6875 -8 C 0.6875 -8.101562 0.703125 -8.203125 0.734375 -8.296875 C 0.773438 -8.398438 0.828125 -8.484375 0.890625 -8.546875 C 0.960938 -8.617188 1.046875 -8.675781 1.140625 -8.71875 C 1.234375 -8.757812 1.332031 -8.78125 1.4375 -8.78125 C 1.539062 -8.78125 1.632812 -8.757812 1.71875 -8.71875 C 1.8125 -8.675781 1.894531 -8.617188 1.96875 -8.546875 C 2.039062 -8.484375 2.097656 -8.398438 2.140625 -8.296875 C 2.179688 -8.203125 2.203125 -8.101562 2.203125 -8 Z M 2.203125 -8 "/></g></g></g></g><g fill="#6eaaf7" fill-opacity="1"><g transform="translate(67.545031, 37.067696)"><g/></g></g><g fill="#6eaaf7" fill-opacity="1"><g transform="translate(70.626306, 37.067696)"><g><path d="M 1.921875 -8.859375 L 1.921875 -3.640625 L 2.203125 -3.640625 C 2.285156 -3.640625 2.351562 -3.648438 2.40625 -3.671875 C 2.457031 -3.703125 2.515625 -3.75 2.578125 -3.8125 L 4.5 -5.875 C 4.550781 -5.945312 4.609375 -6 4.671875 -6.03125 C 4.734375 -6.070312 4.816406 -6.09375 4.921875 -6.09375 L 5.890625 -6.09375 L 3.65625 -3.703125 C 3.539062 -3.566406 3.421875 -3.460938 3.296875 -3.390625 C 3.367188 -3.335938 3.429688 -3.28125 3.484375 -3.21875 C 3.546875 -3.15625 3.601562 -3.082031 3.65625 -3 L 6.046875 0 L 5.09375 0 C 5 0 4.914062 -0.015625 4.84375 -0.046875 C 4.78125 -0.078125 4.726562 -0.128906 4.6875 -0.203125 L 2.671875 -2.703125 C 2.617188 -2.785156 2.5625 -2.835938 2.5 -2.859375 C 2.4375 -2.890625 2.347656 -2.90625 2.234375 -2.90625 L 1.921875 -2.90625 L 1.921875 0 L 0.84375 0 L 0.84375 -8.859375 Z M 1.921875 -8.859375 "/></g></g></g><g fill="#6eaaf7" fill-opacity="1"><g transform="translate(76.740712, 37.067696)"><g><path d="M 5.859375 -6.09375 L 5.859375 0 L 5.21875 0 C 5.070312 0 4.976562 -0.0703125 4.9375 -0.21875 L 4.84375 -0.875 C 4.582031 -0.582031 4.285156 -0.347656 3.953125 -0.171875 C 3.628906 0.00390625 3.253906 0.09375 2.828125 0.09375 C 2.492188 0.09375 2.195312 0.0390625 1.9375 -0.0625 C 1.6875 -0.175781 1.472656 -0.332031 1.296875 -0.53125 C 1.128906 -0.738281 1 -0.984375 0.90625 -1.265625 C 0.820312 -1.546875 0.78125 -1.859375 0.78125 -2.203125 L 0.78125 -6.09375 L 1.859375 -6.09375 L 1.859375 -2.203125 C 1.859375 -1.742188 1.960938 -1.390625 2.171875 -1.140625 C 2.378906 -0.890625 2.703125 -0.765625 3.140625 -0.765625 C 3.453125 -0.765625 3.742188 -0.835938 4.015625 -0.984375 C 4.296875 -1.128906 4.550781 -1.335938 4.78125 -1.609375 L 4.78125 -6.09375 Z M 5.859375 -6.09375 "/></g></g></g><g fill="#6eaaf7" fill-opacity="1"><g transform="translate(83.450915, 37.067696)"><g><path d="M 1.859375 -4.875 C 2.054688 -5.289062 2.296875 -5.613281 2.578125 -5.84375 C 2.859375 -6.082031 3.203125 -6.203125 3.609375 -6.203125 C 3.734375 -6.203125 3.851562 -6.1875 3.96875 -6.15625 C 4.09375 -6.132812 4.203125 -6.09375 4.296875 -6.03125 L 4.203125 -5.234375 C 4.179688 -5.128906 4.125 -5.078125 4.03125 -5.078125 C 3.976562 -5.078125 3.894531 -5.085938 3.78125 -5.109375 C 3.675781 -5.140625 3.554688 -5.15625 3.421875 -5.15625 C 3.222656 -5.15625 3.046875 -5.125 2.890625 -5.0625 C 2.742188 -5.007812 2.613281 -4.925781 2.5 -4.8125 C 2.382812 -4.707031 2.28125 -4.570312 2.1875 -4.40625 C 2.09375 -4.238281 2.003906 -4.050781 1.921875 -3.84375 L 1.921875 0 L 0.84375 0 L 0.84375 -6.09375 L 1.46875 -6.09375 C 1.582031 -6.09375 1.660156 -6.070312 1.703125 -6.03125 C 1.742188 -5.988281 1.773438 -5.910156 1.796875 -5.796875 Z M 1.859375 -4.875 "/></g></g></g><g fill="#6eaaf7" fill-opacity="1"><g transform="translate(87.832103, 37.067696)"><g><path d="M 4.390625 -5.09375 C 4.347656 -5 4.273438 -4.953125 4.171875 -4.953125 C 4.109375 -4.953125 4.039062 -4.972656 3.96875 -5.015625 C 3.894531 -5.066406 3.800781 -5.117188 3.6875 -5.171875 C 3.582031 -5.222656 3.453125 -5.269531 3.296875 -5.3125 C 3.140625 -5.363281 2.957031 -5.390625 2.75 -5.390625 C 2.570312 -5.390625 2.410156 -5.363281 2.265625 -5.3125 C 2.117188 -5.269531 1.992188 -5.207031 1.890625 -5.125 C 1.796875 -5.050781 1.71875 -4.957031 1.65625 -4.84375 C 1.601562 -4.738281 1.578125 -4.625 1.578125 -4.5 C 1.578125 -4.34375 1.625 -4.210938 1.71875 -4.109375 C 1.8125 -4.003906 1.929688 -3.914062 2.078125 -3.84375 C 2.222656 -3.769531 2.390625 -3.703125 2.578125 -3.640625 C 2.765625 -3.585938 2.957031 -3.523438 3.15625 -3.453125 C 3.351562 -3.390625 3.546875 -3.316406 3.734375 -3.234375 C 3.929688 -3.148438 4.101562 -3.046875 4.25 -2.921875 C 4.394531 -2.804688 4.507812 -2.660156 4.59375 -2.484375 C 4.6875 -2.316406 4.734375 -2.109375 4.734375 -1.859375 C 4.734375 -1.578125 4.679688 -1.316406 4.578125 -1.078125 C 4.484375 -0.847656 4.335938 -0.644531 4.140625 -0.46875 C 3.941406 -0.289062 3.703125 -0.148438 3.421875 -0.046875 C 3.140625 0.046875 2.8125 0.09375 2.4375 0.09375 C 2.007812 0.09375 1.625 0.0234375 1.28125 -0.109375 C 0.9375 -0.242188 0.644531 -0.421875 0.40625 -0.640625 L 0.65625 -1.046875 C 0.6875 -1.097656 0.722656 -1.140625 0.765625 -1.171875 C 0.816406 -1.203125 0.875 -1.21875 0.9375 -1.21875 C 1.007812 -1.21875 1.082031 -1.1875 1.15625 -1.125 C 1.238281 -1.070312 1.335938 -1.007812 1.453125 -0.9375 C 1.566406 -0.875 1.707031 -0.8125 1.875 -0.75 C 2.039062 -0.695312 2.242188 -0.671875 2.484375 -0.671875 C 2.691406 -0.671875 2.875 -0.695312 3.03125 -0.75 C 3.1875 -0.8125 3.316406 -0.882812 3.421875 -0.96875 C 3.523438 -1.0625 3.601562 -1.164062 3.65625 -1.28125 C 3.707031 -1.40625 3.734375 -1.535156 3.734375 -1.671875 C 3.734375 -1.847656 3.6875 -1.988281 3.59375 -2.09375 C 3.507812 -2.207031 3.390625 -2.300781 3.234375 -2.375 C 3.085938 -2.457031 2.921875 -2.523438 2.734375 -2.578125 C 2.546875 -2.640625 2.351562 -2.703125 2.15625 -2.765625 C 1.957031 -2.828125 1.757812 -2.898438 1.5625 -2.984375 C 1.375 -3.066406 1.207031 -3.171875 1.0625 -3.296875 C 0.914062 -3.421875 0.796875 -3.570312 0.703125 -3.75 C 0.609375 -3.9375 0.5625 -4.160156 0.5625 -4.421875 C 0.5625 -4.648438 0.609375 -4.867188 0.703125 -5.078125 C 0.804688 -5.296875 0.945312 -5.488281 1.125 -5.65625 C 1.3125 -5.820312 1.539062 -5.953125 1.8125 -6.046875 C 2.082031 -6.140625 2.390625 -6.1875 2.734375 -6.1875 C 3.128906 -6.1875 3.488281 -6.125 3.8125 -6 C 4.132812 -5.875 4.410156 -5.703125 4.640625 -5.484375 Z M 4.390625 -5.09375 "/></g></g></g><g fill="#6eaaf7" fill-opacity="1"><g transform="translate(93.043794, 37.067696)"><g/></g></g><g clip-path="url(#d22fd12e26)"><g fill="#6eaaf7" fill-opacity="1"><g transform="translate(96.125069, 37.067696)"><g><path d="M 1.984375 -6.09375 L 1.984375 0.453125 C 1.984375 0.691406 1.945312 0.914062 1.875 1.125 C 1.8125 1.34375 1.707031 1.53125 1.5625 1.6875 C 1.425781 1.84375 1.25 1.960938 1.03125 2.046875 C 0.8125 2.140625 0.550781 2.1875 0.25 2.1875 C 0.125 2.1875 0.0078125 2.175781 -0.09375 2.15625 C -0.207031 2.132812 -0.316406 2.101562 -0.421875 2.0625 L -0.390625 1.484375 C -0.378906 1.453125 -0.363281 1.425781 -0.34375 1.40625 C -0.320312 1.394531 -0.296875 1.382812 -0.265625 1.375 C -0.234375 1.375 -0.191406 1.375 -0.140625 1.375 C -0.0976562 1.375 -0.0351562 1.375 0.046875 1.375 C 0.359375 1.375 0.578125 1.300781 0.703125 1.15625 C 0.835938 1.007812 0.90625 0.773438 0.90625 0.453125 L 0.90625 -6.09375 Z M 2.203125 -8 C 2.203125 -7.894531 2.179688 -7.796875 2.140625 -7.703125 C 2.097656 -7.617188 2.039062 -7.539062 1.96875 -7.46875 C 1.894531 -7.40625 1.8125 -7.351562 1.71875 -7.3125 C 1.632812 -7.269531 1.539062 -7.25 1.4375 -7.25 C 1.332031 -7.25 1.234375 -7.269531 1.140625 -7.3125 C 1.046875 -7.351562 0.960938 -7.40625 0.890625 -7.46875 C 0.828125 -7.539062 0.773438 -7.617188 0.734375 -7.703125 C 0.703125 -7.796875 0.6875 -7.894531 0.6875 -8 C 0.6875 -8.101562 0.703125 -8.203125 0.734375 -8.296875 C 0.773438 -8.398438 0.828125 -8.484375 0.890625 -8.546875 C 0.960938 -8.617188 1.046875 -8.675781 1.140625 -8.71875 C 1.234375 -8.757812 1.332031 -8.78125 1.4375 -8.78125 C 1.539062 -8.78125 1.632812 -8.757812 1.71875 -8.71875 C 1.8125 -8.675781 1.894531 -8.617188 1.96875 -8.546875 C 2.039062 -8.484375 2.097656 -8.398438 2.140625 -8.296875 C 2.179688 -8.203125 2.203125 -8.101562 2.203125 -8 Z M 2.203125 -8 "/></g></g></g></g><g clip-path="url(#dfe94985cd)"><g fill="#6eaaf7" fill-opacity="1"><g transform="translate(99.013765, 37.067696)"><g><path d="M 4.921875 -3.71875 C 4.921875 -3.957031 4.882812 -4.179688 4.8125 -4.390625 C 4.75 -4.597656 4.648438 -4.773438 4.515625 -4.921875 C 4.378906 -5.078125 4.210938 -5.195312 4.015625 -5.28125 C 3.828125 -5.363281 3.613281 -5.40625 3.375 -5.40625 C 2.851562 -5.40625 2.441406 -5.253906 2.140625 -4.953125 C 1.847656 -4.648438 1.664062 -4.238281 1.59375 -3.71875 Z M 4.78125 1.75 C 4.664062 1.84375 4.515625 1.914062 4.328125 1.96875 C 4.140625 2.03125 3.941406 2.0625 3.734375 2.0625 C 3.390625 2.0625 3.113281 1.976562 2.90625 1.8125 C 2.707031 1.65625 2.609375 1.445312 2.609375 1.1875 C 2.609375 0.976562 2.671875 0.78125 2.796875 0.59375 C 2.929688 0.40625 3.101562 0.234375 3.3125 0.078125 C 2.90625 0.0664062 2.53125 -0.0078125 2.1875 -0.15625 C 1.84375 -0.300781 1.546875 -0.507812 1.296875 -0.78125 C 1.046875 -1.0625 0.847656 -1.398438 0.703125 -1.796875 C 0.566406 -2.191406 0.5 -2.648438 0.5 -3.171875 C 0.5 -3.597656 0.5625 -3.992188 0.6875 -4.359375 C 0.820312 -4.734375 1.007812 -5.054688 1.25 -5.328125 C 1.5 -5.597656 1.800781 -5.804688 2.15625 -5.953125 C 2.507812 -6.109375 2.90625 -6.1875 3.34375 -6.1875 C 3.707031 -6.1875 4.046875 -6.125 4.359375 -6 C 4.671875 -5.882812 4.9375 -5.707031 5.15625 -5.46875 C 5.382812 -5.238281 5.5625 -4.953125 5.6875 -4.609375 C 5.820312 -4.273438 5.890625 -3.894531 5.890625 -3.46875 C 5.890625 -3.300781 5.867188 -3.1875 5.828125 -3.125 C 5.796875 -3.070312 5.726562 -3.046875 5.625 -3.046875 L 1.5625 -3.046875 C 1.570312 -2.660156 1.625 -2.320312 1.71875 -2.03125 C 1.8125 -1.75 1.941406 -1.515625 2.109375 -1.328125 C 2.273438 -1.140625 2.472656 -1 2.703125 -0.90625 C 2.941406 -0.8125 3.207031 -0.765625 3.5 -0.765625 C 3.757812 -0.765625 3.988281 -0.789062 4.1875 -0.84375 C 4.382812 -0.90625 4.550781 -0.972656 4.6875 -1.046875 C 4.832031 -1.117188 4.953125 -1.1875 5.046875 -1.25 C 5.140625 -1.3125 5.21875 -1.34375 5.28125 -1.34375 C 5.375 -1.34375 5.441406 -1.3125 5.484375 -1.25 L 5.796875 -0.859375 C 5.585938 -0.617188 5.332031 -0.421875 5.03125 -0.265625 C 4.726562 -0.117188 4.410156 -0.0195312 4.078125 0.03125 C 4.003906 0.0703125 3.925781 0.125 3.84375 0.1875 C 3.769531 0.25 3.695312 0.316406 3.625 0.390625 C 3.5625 0.460938 3.507812 0.546875 3.46875 0.640625 C 3.4375 0.734375 3.421875 0.828125 3.421875 0.921875 C 3.421875 1.078125 3.46875 1.195312 3.5625 1.28125 C 3.664062 1.363281 3.800781 1.40625 3.96875 1.40625 C 4.0625 1.40625 4.132812 1.398438 4.1875 1.390625 C 4.25 1.378906 4.300781 1.363281 4.34375 1.34375 C 4.382812 1.320312 4.414062 1.300781 4.4375 1.28125 C 4.46875 1.269531 4.492188 1.265625 4.515625 1.265625 C 4.535156 1.265625 4.554688 1.269531 4.578125 1.28125 C 4.597656 1.300781 4.613281 1.320312 4.625 1.34375 Z M 4.78125 1.75 "/></g></g></g></g><g fill="#6eaaf7" fill-opacity="1"><g transform="translate(105.368895, 37.067696)"><g><path d="M 5.046875 -5.640625 C 5.046875 -5.554688 5.03125 -5.476562 5 -5.40625 C 4.976562 -5.34375 4.945312 -5.285156 4.90625 -5.234375 L 1.609375 -0.84375 L 4.9375 -0.84375 L 4.9375 0 L 0.34375 0 L 0.34375 -0.4375 C 0.34375 -0.488281 0.351562 -0.550781 0.375 -0.625 C 0.40625 -0.695312 0.445312 -0.765625 0.5 -0.828125 L 3.8125 -5.25 L 0.53125 -5.25 L 0.53125 -6.09375 L 5.046875 -6.09375 Z M 5.046875 -5.640625 "/></g></g></g><g clip-path="url(#314c5e1d3c)"><g fill="#6eaaf7" fill-opacity="1"><g transform="translate(110.809271, 37.067696)"><g><path d="M 6.109375 -6.09375 L 2.703125 1.796875 C 2.671875 1.878906 2.625 1.941406 2.5625 1.984375 C 2.507812 2.035156 2.429688 2.0625 2.328125 2.0625 L 1.53125 2.0625 L 2.640625 -0.359375 L 0.125 -6.09375 L 1.046875 -6.09375 C 1.140625 -6.09375 1.210938 -6.066406 1.265625 -6.015625 C 1.328125 -5.972656 1.367188 -5.925781 1.390625 -5.875 L 3.015625 -2.03125 C 3.078125 -1.863281 3.128906 -1.6875 3.171875 -1.5 C 3.234375 -1.6875 3.296875 -1.867188 3.359375 -2.046875 L 4.9375 -5.875 C 4.957031 -5.9375 5 -5.988281 5.0625 -6.03125 C 5.125 -6.070312 5.1875 -6.09375 5.25 -6.09375 Z M 6.109375 -6.09375 "/></g></g></g></g><g fill="#6eaaf7" fill-opacity="1"><g transform="translate(117.013947, 37.067696)"><g><path d="M 1.921875 -8.859375 L 1.921875 -3.640625 L 2.203125 -3.640625 C 2.285156 -3.640625 2.351562 -3.648438 2.40625 -3.671875 C 2.457031 -3.703125 2.515625 -3.75 2.578125 -3.8125 L 4.5 -5.875 C 4.550781 -5.945312 4.609375 -6 4.671875 -6.03125 C 4.734375 -6.070312 4.816406 -6.09375 4.921875 -6.09375 L 5.890625 -6.09375 L 3.65625 -3.703125 C 3.539062 -3.566406 3.421875 -3.460938 3.296875 -3.390625 C 3.367188 -3.335938 3.429688 -3.28125 3.484375 -3.21875 C 3.546875 -3.15625 3.601562 -3.082031 3.65625 -3 L 6.046875 0 L 5.09375 0 C 5 0 4.914062 -0.015625 4.84375 -0.046875 C 4.78125 -0.078125 4.726562 -0.128906 4.6875 -0.203125 L 2.671875 -2.703125 C 2.617188 -2.785156 2.5625 -2.835938 2.5 -2.859375 C 2.4375 -2.890625 2.347656 -2.90625 2.234375 -2.90625 L 1.921875 -2.90625 L 1.921875 0 L 0.84375 0 L 0.84375 -8.859375 Z M 1.921875 -8.859375 "/></g></g></g><g fill="#6eaaf7" fill-opacity="1"><g transform="translate(123.128353, 37.067696)"><g><path d="M 4.15625 -2.75 C 3.65625 -2.726562 3.234375 -2.6875 2.890625 -2.625 C 2.546875 -2.5625 2.265625 -2.476562 2.046875 -2.375 C 1.828125 -2.28125 1.664062 -2.164062 1.5625 -2.03125 C 1.46875 -1.894531 1.421875 -1.738281 1.421875 -1.5625 C 1.421875 -1.40625 1.445312 -1.269531 1.5 -1.15625 C 1.550781 -1.039062 1.617188 -0.945312 1.703125 -0.875 C 1.796875 -0.800781 1.90625 -0.742188 2.03125 -0.703125 C 2.15625 -0.671875 2.285156 -0.65625 2.421875 -0.65625 C 2.609375 -0.65625 2.78125 -0.671875 2.9375 -0.703125 C 3.09375 -0.742188 3.238281 -0.800781 3.375 -0.875 C 3.519531 -0.945312 3.65625 -1.03125 3.78125 -1.125 C 3.90625 -1.226562 4.03125 -1.347656 4.15625 -1.484375 Z M 0.6875 -5.234375 C 1.03125 -5.554688 1.394531 -5.796875 1.78125 -5.953125 C 2.164062 -6.117188 2.597656 -6.203125 3.078125 -6.203125 C 3.410156 -6.203125 3.707031 -6.144531 3.96875 -6.03125 C 4.238281 -5.914062 4.460938 -5.757812 4.640625 -5.5625 C 4.828125 -5.363281 4.96875 -5.117188 5.0625 -4.828125 C 5.15625 -4.546875 5.203125 -4.234375 5.203125 -3.890625 L 5.203125 0 L 4.71875 0 C 4.613281 0 4.53125 -0.015625 4.46875 -0.046875 C 4.414062 -0.0859375 4.375 -0.15625 4.34375 -0.25 L 4.234375 -0.828125 C 4.066406 -0.679688 3.90625 -0.550781 3.75 -0.4375 C 3.601562 -0.320312 3.445312 -0.222656 3.28125 -0.140625 C 3.113281 -0.0664062 2.929688 -0.0078125 2.734375 0.03125 C 2.546875 0.0703125 2.335938 0.09375 2.109375 0.09375 C 1.867188 0.09375 1.644531 0.0625 1.4375 0 C 1.226562 -0.0703125 1.046875 -0.171875 0.890625 -0.296875 C 0.734375 -0.429688 0.609375 -0.597656 0.515625 -0.796875 C 0.429688 -1.003906 0.390625 -1.242188 0.390625 -1.515625 C 0.390625 -1.765625 0.453125 -2 0.578125 -2.21875 C 0.710938 -2.4375 0.925781 -2.628906 1.21875 -2.796875 C 1.519531 -2.972656 1.910156 -3.117188 2.390625 -3.234375 C 2.867188 -3.347656 3.457031 -3.410156 4.15625 -3.421875 L 4.15625 -3.890625 C 4.15625 -4.367188 4.050781 -4.726562 3.84375 -4.96875 C 3.632812 -5.207031 3.335938 -5.328125 2.953125 -5.328125 C 2.679688 -5.328125 2.457031 -5.296875 2.28125 -5.234375 C 2.101562 -5.171875 1.945312 -5.097656 1.8125 -5.015625 C 1.6875 -4.929688 1.578125 -4.851562 1.484375 -4.78125 C 1.390625 -4.71875 1.296875 -4.6875 1.203125 -4.6875 C 1.128906 -4.6875 1.066406 -4.707031 1.015625 -4.75 C 0.960938 -4.789062 0.921875 -4.835938 0.890625 -4.890625 Z M 0.6875 -5.234375 "/></g></g></g><g fill="#6eaaf7" fill-opacity="1"><g transform="translate(129.110363, 37.067696)"><g/></g></g><g fill="#6eaaf7" fill-opacity="1"><g transform="translate(132.191638, 37.067696)"><g><path d="M 4.15625 -2.75 C 3.65625 -2.726562 3.234375 -2.6875 2.890625 -2.625 C 2.546875 -2.5625 2.265625 -2.476562 2.046875 -2.375 C 1.828125 -2.28125 1.664062 -2.164062 1.5625 -2.03125 C 1.46875 -1.894531 1.421875 -1.738281 1.421875 -1.5625 C 1.421875 -1.40625 1.445312 -1.269531 1.5 -1.15625 C 1.550781 -1.039062 1.617188 -0.945312 1.703125 -0.875 C 1.796875 -0.800781 1.90625 -0.742188 2.03125 -0.703125 C 2.15625 -0.671875 2.285156 -0.65625 2.421875 -0.65625 C 2.609375 -0.65625 2.78125 -0.671875 2.9375 -0.703125 C 3.09375 -0.742188 3.238281 -0.800781 3.375 -0.875 C 3.519531 -0.945312 3.65625 -1.03125 3.78125 -1.125 C 3.90625 -1.226562 4.03125 -1.347656 4.15625 -1.484375 Z M 0.6875 -5.234375 C 1.03125 -5.554688 1.394531 -5.796875 1.78125 -5.953125 C 2.164062 -6.117188 2.597656 -6.203125 3.078125 -6.203125 C 3.410156 -6.203125 3.707031 -6.144531 3.96875 -6.03125 C 4.238281 -5.914062 4.460938 -5.757812 4.640625 -5.5625 C 4.828125 -5.363281 4.96875 -5.117188 5.0625 -4.828125 C 5.15625 -4.546875 5.203125 -4.234375 5.203125 -3.890625 L 5.203125 0 L 4.71875 0 C 4.613281 0 4.53125 -0.015625 4.46875 -0.046875 C 4.414062 -0.0859375 4.375 -0.15625 4.34375 -0.25 L 4.234375 -0.828125 C 4.066406 -0.679688 3.90625 -0.550781 3.75 -0.4375 C 3.601562 -0.320312 3.445312 -0.222656 3.28125 -0.140625 C 3.113281 -0.0664062 2.929688 -0.0078125 2.734375 0.03125 C 2.546875 0.0703125 2.335938 0.09375 2.109375 0.09375 C 1.867188 0.09375 1.644531 0.0625 1.4375 0 C 1.226562 -0.0703125 1.046875 -0.171875 0.890625 -0.296875 C 0.734375 -0.429688 0.609375 -0.597656 0.515625 -0.796875 C 0.429688 -1.003906 0.390625 -1.242188 0.390625 -1.515625 C 0.390625 -1.765625 0.453125 -2 0.578125 -2.21875 C 0.710938 -2.4375 0.925781 -2.628906 1.21875 -2.796875 C 1.519531 -2.972656 1.910156 -3.117188 2.390625 -3.234375 C 2.867188 -3.347656 3.457031 -3.410156 4.15625 -3.421875 L 4.15625 -3.890625 C 4.15625 -4.367188 4.050781 -4.726562 3.84375 -4.96875 C 3.632812 -5.207031 3.335938 -5.328125 2.953125 -5.328125 C 2.679688 -5.328125 2.457031 -5.296875 2.28125 -5.234375 C 2.101562 -5.171875 1.945312 -5.097656 1.8125 -5.015625 C 1.6875 -4.929688 1.578125 -4.851562 1.484375 -4.78125 C 1.390625 -4.71875 1.296875 -4.6875 1.203125 -4.6875 C 1.128906 -4.6875 1.066406 -4.707031 1.015625 -4.75 C 0.960938 -4.789062 0.921875 -4.835938 0.890625 -4.890625 Z M 0.6875 -5.234375 "/></g></g></g><g fill="#6eaaf7" fill-opacity="1"><g transform="translate(138.173648, 37.067696)"><g><path d="M 1.859375 -5.203125 C 1.992188 -5.359375 2.132812 -5.492188 2.28125 -5.609375 C 2.425781 -5.734375 2.582031 -5.835938 2.75 -5.921875 C 2.914062 -6.003906 3.09375 -6.066406 3.28125 -6.109375 C 3.46875 -6.160156 3.671875 -6.1875 3.890625 -6.1875 C 4.222656 -6.1875 4.515625 -6.128906 4.765625 -6.015625 C 5.023438 -5.910156 5.238281 -5.753906 5.40625 -5.546875 C 5.570312 -5.347656 5.695312 -5.101562 5.78125 -4.8125 C 5.875 -4.53125 5.921875 -4.21875 5.921875 -3.875 L 5.921875 0 L 4.84375 0 L 4.84375 -3.875 C 4.84375 -4.34375 4.738281 -4.703125 4.53125 -4.953125 C 4.320312 -5.203125 4.003906 -5.328125 3.578125 -5.328125 C 3.253906 -5.328125 2.957031 -5.25 2.6875 -5.09375 C 2.414062 -4.945312 2.160156 -4.742188 1.921875 -4.484375 L 1.921875 0 L 0.84375 0 L 0.84375 -6.09375 L 1.484375 -6.09375 C 1.640625 -6.09375 1.738281 -6.019531 1.78125 -5.875 Z M 1.859375 -5.203125 "/></g></g></g><g clip-path="url(#a3d024264b)"><g fill="#6eaaf7" fill-opacity="1"><g transform="translate(144.88987, 37.067696)"><g><path d="M 2.96875 -2.984375 C 3.1875 -2.984375 3.378906 -3.007812 3.546875 -3.0625 C 3.710938 -3.125 3.847656 -3.207031 3.953125 -3.3125 C 4.066406 -3.425781 4.148438 -3.554688 4.203125 -3.703125 C 4.265625 -3.859375 4.296875 -4.023438 4.296875 -4.203125 C 4.296875 -4.578125 4.179688 -4.875 3.953125 -5.09375 C 3.722656 -5.3125 3.394531 -5.421875 2.96875 -5.421875 C 2.539062 -5.421875 2.210938 -5.3125 1.984375 -5.09375 C 1.753906 -4.875 1.640625 -4.578125 1.640625 -4.203125 C 1.640625 -4.023438 1.664062 -3.859375 1.71875 -3.703125 C 1.78125 -3.554688 1.867188 -3.425781 1.984375 -3.3125 C 2.097656 -3.207031 2.234375 -3.125 2.390625 -3.0625 C 2.554688 -3.007812 2.75 -2.984375 2.96875 -2.984375 Z M 4.90625 0.328125 C 4.90625 0.179688 4.863281 0.0625 4.78125 -0.03125 C 4.695312 -0.125 4.582031 -0.195312 4.4375 -0.25 C 4.289062 -0.300781 4.125 -0.335938 3.9375 -0.359375 C 3.75 -0.378906 3.550781 -0.394531 3.34375 -0.40625 C 3.132812 -0.414062 2.921875 -0.425781 2.703125 -0.4375 C 2.484375 -0.457031 2.273438 -0.476562 2.078125 -0.5 C 1.847656 -0.394531 1.660156 -0.265625 1.515625 -0.109375 C 1.378906 0.046875 1.3125 0.226562 1.3125 0.4375 C 1.3125 0.582031 1.34375 0.710938 1.40625 0.828125 C 1.476562 0.941406 1.585938 1.039062 1.734375 1.125 C 1.878906 1.21875 2.0625 1.285156 2.28125 1.328125 C 2.5 1.378906 2.757812 1.40625 3.0625 1.40625 C 3.34375 1.40625 3.597656 1.378906 3.828125 1.328125 C 4.054688 1.273438 4.25 1.203125 4.40625 1.109375 C 4.570312 1.015625 4.695312 0.898438 4.78125 0.765625 C 4.863281 0.640625 4.90625 0.492188 4.90625 0.328125 Z M 5.984375 -5.859375 L 5.984375 -5.453125 C 5.984375 -5.316406 5.898438 -5.234375 5.734375 -5.203125 L 5.046875 -5.109375 C 5.179688 -4.847656 5.25 -4.554688 5.25 -4.234375 C 5.25 -3.941406 5.191406 -3.671875 5.078125 -3.421875 C 4.960938 -3.179688 4.804688 -2.972656 4.609375 -2.796875 C 4.410156 -2.628906 4.171875 -2.5 3.890625 -2.40625 C 3.609375 -2.3125 3.300781 -2.265625 2.96875 -2.265625 C 2.6875 -2.265625 2.421875 -2.300781 2.171875 -2.375 C 2.035156 -2.289062 1.929688 -2.203125 1.859375 -2.109375 C 1.796875 -2.023438 1.765625 -1.9375 1.765625 -1.84375 C 1.765625 -1.695312 1.820312 -1.585938 1.9375 -1.515625 C 2.0625 -1.441406 2.21875 -1.390625 2.40625 -1.359375 C 2.601562 -1.328125 2.820312 -1.304688 3.0625 -1.296875 C 3.3125 -1.285156 3.566406 -1.269531 3.828125 -1.25 C 4.085938 -1.238281 4.335938 -1.207031 4.578125 -1.15625 C 4.828125 -1.113281 5.046875 -1.039062 5.234375 -0.9375 C 5.429688 -0.84375 5.585938 -0.707031 5.703125 -0.53125 C 5.828125 -0.351562 5.890625 -0.125 5.890625 0.15625 C 5.890625 0.414062 5.820312 0.664062 5.6875 0.90625 C 5.5625 1.15625 5.375 1.375 5.125 1.5625 C 4.882812 1.757812 4.585938 1.914062 4.234375 2.03125 C 3.878906 2.144531 3.476562 2.203125 3.03125 2.203125 C 2.582031 2.203125 2.191406 2.15625 1.859375 2.0625 C 1.523438 1.976562 1.25 1.859375 1.03125 1.703125 C 0.8125 1.554688 0.644531 1.382812 0.53125 1.1875 C 0.425781 1 0.375 0.796875 0.375 0.578125 C 0.375 0.273438 0.46875 0.0195312 0.65625 -0.1875 C 0.84375 -0.394531 1.101562 -0.5625 1.4375 -0.6875 C 1.25 -0.757812 1.101562 -0.863281 1 -1 C 0.894531 -1.132812 0.84375 -1.316406 0.84375 -1.546875 C 0.84375 -1.628906 0.859375 -1.71875 0.890625 -1.8125 C 0.921875 -1.914062 0.96875 -2.015625 1.03125 -2.109375 C 1.101562 -2.203125 1.1875 -2.289062 1.28125 -2.375 C 1.375 -2.457031 1.488281 -2.53125 1.625 -2.59375 C 1.320312 -2.757812 1.082031 -2.984375 0.90625 -3.265625 C 0.738281 -3.546875 0.65625 -3.867188 0.65625 -4.234375 C 0.65625 -4.535156 0.710938 -4.804688 0.828125 -5.046875 C 0.941406 -5.285156 1.101562 -5.488281 1.3125 -5.65625 C 1.519531 -5.832031 1.765625 -5.96875 2.046875 -6.0625 C 2.328125 -6.15625 2.632812 -6.203125 2.96875 -6.203125 C 3.238281 -6.203125 3.484375 -6.171875 3.703125 -6.109375 C 3.929688 -6.046875 4.144531 -5.960938 4.34375 -5.859375 Z M 5.984375 -5.859375 "/></g></g></g></g><g fill="#6eaaf7" fill-opacity="1"><g transform="translate(151.148711, 37.067696)"><g><path d="M 1.984375 -6.09375 L 1.984375 0 L 0.90625 0 L 0.90625 -6.09375 Z M 2.203125 -8 C 2.203125 -7.894531 2.179688 -7.796875 2.140625 -7.703125 C 2.097656 -7.617188 2.039062 -7.539062 1.96875 -7.46875 C 1.90625 -7.40625 1.828125 -7.351562 1.734375 -7.3125 C 1.640625 -7.269531 1.539062 -7.25 1.4375 -7.25 C 1.332031 -7.25 1.234375 -7.269531 1.140625 -7.3125 C 1.046875 -7.351562 0.960938 -7.40625 0.890625 -7.46875 C 0.828125 -7.539062 0.773438 -7.617188 0.734375 -7.703125 C 0.703125 -7.796875 0.6875 -7.894531 0.6875 -8 C 0.6875 -8.101562 0.703125 -8.203125 0.734375 -8.296875 C 0.773438 -8.398438 0.828125 -8.484375 0.890625 -8.546875 C 0.960938 -8.617188 1.046875 -8.675781 1.140625 -8.71875 C 1.234375 -8.757812 1.332031 -8.78125 1.4375 -8.78125 C 1.539062 -8.78125 1.640625 -8.757812 1.734375 -8.71875 C 1.828125 -8.675781 1.90625 -8.617188 1.96875 -8.546875 C 2.039062 -8.484375 2.097656 -8.398438 2.140625 -8.296875 C 2.179688 -8.203125 2.203125 -8.101562 2.203125 -8 Z M 2.203125 -8 "/></g></g></g><g fill="#6eaaf7" fill-opacity="1"><g transform="translate(154.037406, 37.067696)"><g><path d="M 4.921875 -3.71875 C 4.921875 -3.957031 4.882812 -4.179688 4.8125 -4.390625 C 4.75 -4.597656 4.648438 -4.773438 4.515625 -4.921875 C 4.378906 -5.078125 4.210938 -5.195312 4.015625 -5.28125 C 3.828125 -5.363281 3.613281 -5.40625 3.375 -5.40625 C 2.851562 -5.40625 2.441406 -5.253906 2.140625 -4.953125 C 1.847656 -4.648438 1.664062 -4.238281 1.59375 -3.71875 Z M 5.796875 -0.859375 C 5.660156 -0.691406 5.5 -0.550781 5.3125 -0.4375 C 5.132812 -0.320312 4.9375 -0.222656 4.71875 -0.140625 C 4.507812 -0.0664062 4.289062 -0.015625 4.0625 0.015625 C 3.84375 0.0546875 3.625 0.078125 3.40625 0.078125 C 2.976562 0.078125 2.585938 0.0078125 2.234375 -0.125 C 1.878906 -0.269531 1.570312 -0.476562 1.3125 -0.75 C 1.0625 -1.03125 0.863281 -1.367188 0.71875 -1.765625 C 0.570312 -2.171875 0.5 -2.640625 0.5 -3.171875 C 0.5 -3.597656 0.5625 -3.992188 0.6875 -4.359375 C 0.820312 -4.734375 1.007812 -5.054688 1.25 -5.328125 C 1.5 -5.597656 1.800781 -5.804688 2.15625 -5.953125 C 2.507812 -6.109375 2.90625 -6.1875 3.34375 -6.1875 C 3.707031 -6.1875 4.046875 -6.125 4.359375 -6 C 4.671875 -5.882812 4.9375 -5.707031 5.15625 -5.46875 C 5.382812 -5.238281 5.5625 -4.953125 5.6875 -4.609375 C 5.820312 -4.273438 5.890625 -3.894531 5.890625 -3.46875 C 5.890625 -3.300781 5.867188 -3.1875 5.828125 -3.125 C 5.796875 -3.070312 5.726562 -3.046875 5.625 -3.046875 L 1.5625 -3.046875 C 1.570312 -2.660156 1.625 -2.320312 1.71875 -2.03125 C 1.8125 -1.75 1.941406 -1.515625 2.109375 -1.328125 C 2.273438 -1.140625 2.472656 -1 2.703125 -0.90625 C 2.941406 -0.8125 3.207031 -0.765625 3.5 -0.765625 C 3.757812 -0.765625 3.988281 -0.789062 4.1875 -0.84375 C 4.382812 -0.90625 4.550781 -0.972656 4.6875 -1.046875 C 4.832031 -1.117188 4.953125 -1.1875 5.046875 -1.25 C 5.140625 -1.3125 5.21875 -1.34375 5.28125 -1.34375 C 5.375 -1.34375 5.441406 -1.3125 5.484375 -1.25 Z M 5.796875 -0.859375 "/></g></g></g><g fill="#6eaaf7" fill-opacity="1"><g transform="translate(160.392536, 37.067696)"><g><path d="M 1.953125 -8.859375 L 1.953125 0 L 0.890625 0 L 0.890625 -8.859375 Z M 1.953125 -8.859375 "/></g></g></g><g fill="#6eaaf7" fill-opacity="1"><g transform="translate(163.233087, 37.067696)"><g><path d="M 4.390625 -5.09375 C 4.347656 -5 4.273438 -4.953125 4.171875 -4.953125 C 4.109375 -4.953125 4.039062 -4.972656 3.96875 -5.015625 C 3.894531 -5.066406 3.800781 -5.117188 3.6875 -5.171875 C 3.582031 -5.222656 3.453125 -5.269531 3.296875 -5.3125 C 3.140625 -5.363281 2.957031 -5.390625 2.75 -5.390625 C 2.570312 -5.390625 2.410156 -5.363281 2.265625 -5.3125 C 2.117188 -5.269531 1.992188 -5.207031 1.890625 -5.125 C 1.796875 -5.050781 1.71875 -4.957031 1.65625 -4.84375 C 1.601562 -4.738281 1.578125 -4.625 1.578125 -4.5 C 1.578125 -4.34375 1.625 -4.210938 1.71875 -4.109375 C 1.8125 -4.003906 1.929688 -3.914062 2.078125 -3.84375 C 2.222656 -3.769531 2.390625 -3.703125 2.578125 -3.640625 C 2.765625 -3.585938 2.957031 -3.523438 3.15625 -3.453125 C 3.351562 -3.390625 3.546875 -3.316406 3.734375 -3.234375 C 3.929688 -3.148438 4.101562 -3.046875 4.25 -2.921875 C 4.394531 -2.804688 4.507812 -2.660156 4.59375 -2.484375 C 4.6875 -2.316406 4.734375 -2.109375 4.734375 -1.859375 C 4.734375 -1.578125 4.679688 -1.316406 4.578125 -1.078125 C 4.484375 -0.847656 4.335938 -0.644531 4.140625 -0.46875 C 3.941406 -0.289062 3.703125 -0.148438 3.421875 -0.046875 C 3.140625 0.046875 2.8125 0.09375 2.4375 0.09375 C 2.007812 0.09375 1.625 0.0234375 1.28125 -0.109375 C 0.9375 -0.242188 0.644531 -0.421875 0.40625 -0.640625 L 0.65625 -1.046875 C 0.6875 -1.097656 0.722656 -1.140625 0.765625 -1.171875 C 0.816406 -1.203125 0.875 -1.21875 0.9375 -1.21875 C 1.007812 -1.21875 1.082031 -1.1875 1.15625 -1.125 C 1.238281 -1.070312 1.335938 -1.007812 1.453125 -0.9375 C 1.566406 -0.875 1.707031 -0.8125 1.875 -0.75 C 2.039062 -0.695312 2.242188 -0.671875 2.484375 -0.671875 C 2.691406 -0.671875 2.875 -0.695312 3.03125 -0.75 C 3.1875 -0.8125 3.316406 -0.882812 3.421875 -0.96875 C 3.523438 -1.0625 3.601562 -1.164062 3.65625 -1.28125 C 3.707031 -1.40625 3.734375 -1.535156 3.734375 -1.671875 C 3.734375 -1.847656 3.6875 -1.988281 3.59375 -2.09375 C 3.507812 -2.207031 3.390625 -2.300781 3.234375 -2.375 C 3.085938 -2.457031 2.921875 -2.523438 2.734375 -2.578125 C 2.546875 -2.640625 2.351562 -2.703125 2.15625 -2.765625 C 1.957031 -2.828125 1.757812 -2.898438 1.5625 -2.984375 C 1.375 -3.066406 1.207031 -3.171875 1.0625 -3.296875 C 0.914062 -3.421875 0.796875 -3.570312 0.703125 -3.75 C 0.609375 -3.9375 0.5625 -4.160156 0.5625 -4.421875 C 0.5625 -4.648438 0.609375 -4.867188 0.703125 -5.078125 C 0.804688 -5.296875 0.945312 -5.488281 1.125 -5.65625 C 1.3125 -5.820312 1.539062 -5.953125 1.8125 -6.046875 C 2.082031 -6.140625 2.390625 -6.1875 2.734375 -6.1875 C 3.128906 -6.1875 3.488281 -6.125 3.8125 -6 C 4.132812 -5.875 4.410156 -5.703125 4.640625 -5.484375 Z M 4.390625 -5.09375 "/></g></g></g><g fill="#6eaaf7" fill-opacity="1"><g transform="translate(168.444778, 37.067696)"><g><path d="M 1.921875 -8.859375 L 1.921875 -3.640625 L 2.203125 -3.640625 C 2.285156 -3.640625 2.351562 -3.648438 2.40625 -3.671875 C 2.457031 -3.703125 2.515625 -3.75 2.578125 -3.8125 L 4.5 -5.875 C 4.550781 -5.945312 4.609375 -6 4.671875 -6.03125 C 4.734375 -6.070312 4.816406 -6.09375 4.921875 -6.09375 L 5.890625 -6.09375 L 3.65625 -3.703125 C 3.539062 -3.566406 3.421875 -3.460938 3.296875 -3.390625 C 3.367188 -3.335938 3.429688 -3.28125 3.484375 -3.21875 C 3.546875 -3.15625 3.601562 -3.082031 3.65625 -3 L 6.046875 0 L 5.09375 0 C 5 0 4.914062 -0.015625 4.84375 -0.046875 C 4.78125 -0.078125 4.726562 -0.128906 4.6875 -0.203125 L 2.671875 -2.703125 C 2.617188 -2.785156 2.5625 -2.835938 2.5 -2.859375 C 2.4375 -2.890625 2.347656 -2.90625 2.234375 -2.90625 L 1.921875 -2.90625 L 1.921875 0 L 0.84375 0 L 0.84375 -8.859375 Z M 1.921875 -8.859375 "/></g></g></g><g fill="#6eaaf7" fill-opacity="1"><g transform="translate(174.559183, 37.067696)"><g><path d="M 1.984375 -6.09375 L 1.984375 0 L 0.90625 0 L 0.90625 -6.09375 Z M 2.203125 -8 C 2.203125 -7.894531 2.179688 -7.796875 2.140625 -7.703125 C 2.097656 -7.617188 2.039062 -7.539062 1.96875 -7.46875 C 1.90625 -7.40625 1.828125 -7.351562 1.734375 -7.3125 C 1.640625 -7.269531 1.539062 -7.25 1.4375 -7.25 C 1.332031 -7.25 1.234375 -7.269531 1.140625 -7.3125 C 1.046875 -7.351562 0.960938 -7.40625 0.890625 -7.46875 C 0.828125 -7.539062 0.773438 -7.617188 0.734375 -7.703125 C 0.703125 -7.796875 0.6875 -7.894531 0.6875 -8 C 0.6875 -8.101562 0.703125 -8.203125 0.734375 -8.296875 C 0.773438 -8.398438 0.828125 -8.484375 0.890625 -8.546875 C 0.960938 -8.617188 1.046875 -8.675781 1.140625 -8.71875 C 1.234375 -8.757812 1.332031 -8.78125 1.4375 -8.78125 C 1.539062 -8.78125 1.640625 -8.757812 1.734375 -8.71875 C 1.828125 -8.675781 1.90625 -8.617188 1.96875 -8.546875 C 2.039062 -8.484375 2.097656 -8.398438 2.140625 -8.296875 C 2.179688 -8.203125 2.203125 -8.101562 2.203125 -8 Z M 2.203125 -8 "/></g></g></g><g fill="#6eaaf7" fill-opacity="1"><g transform="translate(177.447879, 37.067696)"><g><path d="M 4.921875 -3.71875 C 4.921875 -3.957031 4.882812 -4.179688 4.8125 -4.390625 C 4.75 -4.597656 4.648438 -4.773438 4.515625 -4.921875 C 4.378906 -5.078125 4.210938 -5.195312 4.015625 -5.28125 C 3.828125 -5.363281 3.613281 -5.40625 3.375 -5.40625 C 2.851562 -5.40625 2.441406 -5.253906 2.140625 -4.953125 C 1.847656 -4.648438 1.664062 -4.238281 1.59375 -3.71875 Z M 5.796875 -0.859375 C 5.660156 -0.691406 5.5 -0.550781 5.3125 -0.4375 C 5.132812 -0.320312 4.9375 -0.222656 4.71875 -0.140625 C 4.507812 -0.0664062 4.289062 -0.015625 4.0625 0.015625 C 3.84375 0.0546875 3.625 0.078125 3.40625 0.078125 C 2.976562 0.078125 2.585938 0.0078125 2.234375 -0.125 C 1.878906 -0.269531 1.570312 -0.476562 1.3125 -0.75 C 1.0625 -1.03125 0.863281 -1.367188 0.71875 -1.765625 C 0.570312 -2.171875 0.5 -2.640625 0.5 -3.171875 C 0.5 -3.597656 0.5625 -3.992188 0.6875 -4.359375 C 0.820312 -4.734375 1.007812 -5.054688 1.25 -5.328125 C 1.5 -5.597656 1.800781 -5.804688 2.15625 -5.953125 C 2.507812 -6.109375 2.90625 -6.1875 3.34375 -6.1875 C 3.707031 -6.1875 4.046875 -6.125 4.359375 -6 C 4.671875 -5.882812 4.9375 -5.707031 5.15625 -5.46875 C 5.382812 -5.238281 5.5625 -4.953125 5.6875 -4.609375 C 5.820312 -4.273438 5.890625 -3.894531 5.890625 -3.46875 C 5.890625 -3.300781 5.867188 -3.1875 5.828125 -3.125 C 5.796875 -3.070312 5.726562 -3.046875 5.625 -3.046875 L 1.5625 -3.046875 C 1.570312 -2.660156 1.625 -2.320312 1.71875 -2.03125 C 1.8125 -1.75 1.941406 -1.515625 2.109375 -1.328125 C 2.273438 -1.140625 2.472656 -1 2.703125 -0.90625 C 2.941406 -0.8125 3.207031 -0.765625 3.5 -0.765625 C 3.757812 -0.765625 3.988281 -0.789062 4.1875 -0.84375 C 4.382812 -0.90625 4.550781 -0.972656 4.6875 -1.046875 C 4.832031 -1.117188 4.953125 -1.1875 5.046875 -1.25 C 5.140625 -1.3125 5.21875 -1.34375 5.28125 -1.34375 C 5.375 -1.34375 5.441406 -1.3125 5.484375 -1.25 Z M 5.796875 -0.859375 "/></g></g></g><g clip-path="url(#1a4a9cf3ae)"><g fill="#6eaaf7" fill-opacity="1"><g transform="translate(183.803009, 37.067696)"><g><path d="M 2.96875 -2.984375 C 3.1875 -2.984375 3.378906 -3.007812 3.546875 -3.0625 C 3.710938 -3.125 3.847656 -3.207031 3.953125 -3.3125 C 4.066406 -3.425781 4.148438 -3.554688 4.203125 -3.703125 C 4.265625 -3.859375 4.296875 -4.023438 4.296875 -4.203125 C 4.296875 -4.578125 4.179688 -4.875 3.953125 -5.09375 C 3.722656 -5.3125 3.394531 -5.421875 2.96875 -5.421875 C 2.539062 -5.421875 2.210938 -5.3125 1.984375 -5.09375 C 1.753906 -4.875 1.640625 -4.578125 1.640625 -4.203125 C 1.640625 -4.023438 1.664062 -3.859375 1.71875 -3.703125 C 1.78125 -3.554688 1.867188 -3.425781 1.984375 -3.3125 C 2.097656 -3.207031 2.234375 -3.125 2.390625 -3.0625 C 2.554688 -3.007812 2.75 -2.984375 2.96875 -2.984375 Z M 4.90625 0.328125 C 4.90625 0.179688 4.863281 0.0625 4.78125 -0.03125 C 4.695312 -0.125 4.582031 -0.195312 4.4375 -0.25 C 4.289062 -0.300781 4.125 -0.335938 3.9375 -0.359375 C 3.75 -0.378906 3.550781 -0.394531 3.34375 -0.40625 C 3.132812 -0.414062 2.921875 -0.425781 2.703125 -0.4375 C 2.484375 -0.457031 2.273438 -0.476562 2.078125 -0.5 C 1.847656 -0.394531 1.660156 -0.265625 1.515625 -0.109375 C 1.378906 0.046875 1.3125 0.226562 1.3125 0.4375 C 1.3125 0.582031 1.34375 0.710938 1.40625 0.828125 C 1.476562 0.941406 1.585938 1.039062 1.734375 1.125 C 1.878906 1.21875 2.0625 1.285156 2.28125 1.328125 C 2.5 1.378906 2.757812 1.40625 3.0625 1.40625 C 3.34375 1.40625 3.597656 1.378906 3.828125 1.328125 C 4.054688 1.273438 4.25 1.203125 4.40625 1.109375 C 4.570312 1.015625 4.695312 0.898438 4.78125 0.765625 C 4.863281 0.640625 4.90625 0.492188 4.90625 0.328125 Z M 5.984375 -5.859375 L 5.984375 -5.453125 C 5.984375 -5.316406 5.898438 -5.234375 5.734375 -5.203125 L 5.046875 -5.109375 C 5.179688 -4.847656 5.25 -4.554688 5.25 -4.234375 C 5.25 -3.941406 5.191406 -3.671875 5.078125 -3.421875 C 4.960938 -3.179688 4.804688 -2.972656 4.609375 -2.796875 C 4.410156 -2.628906 4.171875 -2.5 3.890625 -2.40625 C 3.609375 -2.3125 3.300781 -2.265625 2.96875 -2.265625 C 2.6875 -2.265625 2.421875 -2.300781 2.171875 -2.375 C 2.035156 -2.289062 1.929688 -2.203125 1.859375 -2.109375 C 1.796875 -2.023438 1.765625 -1.9375 1.765625 -1.84375 C 1.765625 -1.695312 1.820312 -1.585938 1.9375 -1.515625 C 2.0625 -1.441406 2.21875 -1.390625 2.40625 -1.359375 C 2.601562 -1.328125 2.820312 -1.304688 3.0625 -1.296875 C 3.3125 -1.285156 3.566406 -1.269531 3.828125 -1.25 C 4.085938 -1.238281 4.335938 -1.207031 4.578125 -1.15625 C 4.828125 -1.113281 5.046875 -1.039062 5.234375 -0.9375 C 5.429688 -0.84375 5.585938 -0.707031 5.703125 -0.53125 C 5.828125 -0.351562 5.890625 -0.125 5.890625 0.15625 C 5.890625 0.414062 5.820312 0.664062 5.6875 0.90625 C 5.5625 1.15625 5.375 1.375 5.125 1.5625 C 4.882812 1.757812 4.585938 1.914062 4.234375 2.03125 C 3.878906 2.144531 3.476562 2.203125 3.03125 2.203125 C 2.582031 2.203125 2.191406 2.15625 1.859375 2.0625 C 1.523438 1.976562 1.25 1.859375 1.03125 1.703125 C 0.8125 1.554688 0.644531 1.382812 0.53125 1.1875 C 0.425781 1 0.375 0.796875 0.375 0.578125 C 0.375 0.273438 0.46875 0.0195312 0.65625 -0.1875 C 0.84375 -0.394531 1.101562 -0.5625 1.4375 -0.6875 C 1.25 -0.757812 1.101562 -0.863281 1 -1 C 0.894531 -1.132812 0.84375 -1.316406 0.84375 -1.546875 C 0.84375 -1.628906 0.859375 -1.71875 0.890625 -1.8125 C 0.921875 -1.914062 0.96875 -2.015625 1.03125 -2.109375 C 1.101562 -2.203125 1.1875 -2.289062 1.28125 -2.375 C 1.375 -2.457031 1.488281 -2.53125 1.625 -2.59375 C 1.320312 -2.757812 1.082031 -2.984375 0.90625 -3.265625 C 0.738281 -3.546875 0.65625 -3.867188 0.65625 -4.234375 C 0.65625 -4.535156 0.710938 -4.804688 0.828125 -5.046875 C 0.941406 -5.285156 1.101562 -5.488281 1.3125 -5.65625 C 1.519531 -5.832031 1.765625 -5.96875 2.046875 -6.0625 C 2.328125 -6.15625 2.632812 -6.203125 2.96875 -6.203125 C 3.238281 -6.203125 3.484375 -6.171875 3.703125 -6.109375 C 3.929688 -6.046875 4.144531 -5.960938 4.34375 -5.859375 Z M 5.984375 -5.859375 "/></g></g></g></g><g fill="#6eaaf7" fill-opacity="1"><g transform="translate(190.061849, 37.067696)"><g><path d="M 3.421875 -6.1875 C 3.859375 -6.1875 4.253906 -6.113281 4.609375 -5.96875 C 4.972656 -5.820312 5.28125 -5.609375 5.53125 -5.328125 C 5.78125 -5.054688 5.972656 -4.726562 6.109375 -4.34375 C 6.242188 -3.957031 6.3125 -3.523438 6.3125 -3.046875 C 6.3125 -2.566406 6.242188 -2.132812 6.109375 -1.75 C 5.972656 -1.363281 5.78125 -1.035156 5.53125 -0.765625 C 5.28125 -0.492188 4.972656 -0.285156 4.609375 -0.140625 C 4.253906 0.00390625 3.859375 0.078125 3.421875 0.078125 C 2.972656 0.078125 2.566406 0.00390625 2.203125 -0.140625 C 1.847656 -0.285156 1.539062 -0.492188 1.28125 -0.765625 C 1.03125 -1.035156 0.835938 -1.363281 0.703125 -1.75 C 0.566406 -2.132812 0.5 -2.566406 0.5 -3.046875 C 0.5 -3.523438 0.566406 -3.957031 0.703125 -4.34375 C 0.835938 -4.726562 1.03125 -5.054688 1.28125 -5.328125 C 1.539062 -5.609375 1.847656 -5.820312 2.203125 -5.96875 C 2.566406 -6.113281 2.972656 -6.1875 3.421875 -6.1875 Z M 3.421875 -0.75 C 4.015625 -0.75 4.457031 -0.953125 4.75 -1.359375 C 5.050781 -1.765625 5.203125 -2.328125 5.203125 -3.046875 C 5.203125 -3.765625 5.050781 -4.328125 4.75 -4.734375 C 4.457031 -5.140625 4.015625 -5.34375 3.421875 -5.34375 C 3.109375 -5.34375 2.835938 -5.289062 2.609375 -5.1875 C 2.390625 -5.082031 2.203125 -4.929688 2.046875 -4.734375 C 1.898438 -4.546875 1.789062 -4.304688 1.71875 -4.015625 C 1.644531 -3.722656 1.609375 -3.398438 1.609375 -3.046875 C 1.609375 -2.328125 1.753906 -1.765625 2.046875 -1.359375 C 2.347656 -0.953125 2.804688 -0.75 3.421875 -0.75 Z M 3.421875 -0.75 "/></g></g></g></svg>