<svg xmlns="http://www.w3.org/2000/svg" version="1.1" width="100%" height="100%" x="0" y="0" viewBox="0 0 512 512" style="enable-background:new 0 0 512 512" xml:space="preserve" xmlns:xml="http://www.w3.org/XML/1998/namespace" preserveAspectRatio="xMidYMid">
  <g>
    <path d="m96.194 96.194c42.686-42.686 99.439-66.194 159.806-66.194 46.164 0 90.796 14.043 128.331 39.967l-28.977 2.972 3.061 29.843 78-8-8-78-29.844 3.061 2.594 25.291c-42.478-29.277-92.957-45.134-145.165-45.134-68.38 0-132.667 26.629-181.019 74.981s-74.981 112.639-74.981 181.019c0 51.192 15.064 100.605 43.563 142.895l24.878-16.765c-.345-.513-.68-1.03-1.021-1.545-24.482-36.976-37.42-80.009-37.42-124.585 0-60.366 23.508-117.12 66.194-159.806z" fill="#0b7cfe" data-original="#000000"/>
    <path d="m468.438 113.105-24.879 16.765c.345.512.68 1.031 1.021 1.545 24.481 36.976 37.42 80.009 37.42 124.585 0 60.367-23.508 117.12-66.194 159.806-42.685 42.686-99.438 66.194-159.806 66.194-46.164 0-90.796-14.043-128.331-39.967l28.977-2.972-3.061-29.843-78 8 8 78 29.844-3.061-2.594-25.291c42.479 29.277 92.958 45.134 145.165 45.134 68.38 0 132.667-26.629 181.02-74.981 48.352-48.352 74.98-112.639 74.98-181.019 0-51.192-15.063-100.605-43.562-142.895z" fill="#0b7cfe" data-original="#000000"/>
    <path d="m124.983 287.484 19.42-17.949c14.712-13.535 17.508-22.657 17.508-32.661 0-19.126-16.331-31.337-40.017-31.337-20.303 0-34.868 8.533-42.665 21.48l21.627 12.064c4.119-6.62 10.887-10.004 18.39-10.004 8.827 0 13.241 3.972 13.241 10.593 0 4.267-1.177 8.975-9.416 16.625l-38.546 36.045v18.243h80.181v-23.098h-39.723z" fill="#0b7cfe" data-original="#000000"/>
    <path d="m257.252 290.868h15.3v-23.098h-15.3v-17.507h-27.512v17.507h-20.891l41.929-60.173h-30.16l-46.196 64.292v18.979h54.435v19.714h28.395z" fill="#0b7cfe" data-original="#000000"/>
    <path d="m299.038 325.294 48.549-138.588h-24.863l-48.55 138.588z" fill="#0b7cfe" data-original="#000000"/>
    <path d="m372.305 246.584v-15.889h27.07l-34.72 79.887h31.778l36.339-84.742v-18.243h-85.331v38.987z" fill="#0b7cfe" data-original="#000000"/>
  </g>
</svg>
