<svg xmlns="http://www.w3.org/2000/svg" version="1.1" width="100%" height="100%" x="0" y="0" viewBox="0 0 64 64" style="enable-background:new 0 0 512 512" xml:space="preserve" xmlns:xml="http://www.w3.org/XML/1998/namespace" class="" preserveAspectRatio="xMidYMid">
  <g>
    <g id="graphic_growth">
      <g>
        <path d="m18 47h-16c-.552 0-1 .448-1 1v14c0 .552.448 1 1 1h16c.552 0 1-.448 1-1v-14c0-.552-.448-1-1-1z" fill="#161823" data-original="#000000" class=""/>
        <path d="m40 37h-16c-.552 0-1 .448-1 1v24c0 .552.448 1 1 1h16c.552 0 1-.448 1-1v-24c0-.552-.448-1-1-1z" fill="#161823" data-original="#000000" class=""/>
        <path d="m62 27h-16c-.552 0-1 .448-1 1v34c0 .552.448 1 1 1h16c.552 0 1-.448 1-1v-34c0-.552-.448-1-1-1z" fill="#161823" data-original="#000000" class=""/>
        <path d="m2.001 41c.146 0 .294-.032.434-.099l52.71-25.403 2.366 4.098c.202.35.597.544.997.491.401-.053.731-.342.835-.732l3.624-13.523c.069-.256.033-.529-.1-.759-.133-.229-.351-.397-.607-.466l-13.524-3.623c-.392-.104-.806.036-1.052.357s-.275.759-.073 1.109l2.362 4.091-48.531 32.629c-.435.293-.57.872-.31 1.328.185.32.521.502.869.502z" fill="#161823" data-original="#000000" class=""/>
      </g>
    </g>
  </g>
</svg>
