<svg xmlns="http://www.w3.org/2000/svg" width="100%" zoomAndPan="magnify" viewBox="0 0 768 767.999994" height="100%" preserveAspectRatio="xMidYMid" version="1.0">
  <path fill="#f0f0f0" d="M 768 384 C 768 390.285156 767.84375 396.566406 767.539062 402.84375 C 767.230469 409.117188 766.765625 415.382812 766.152344 421.636719 C 765.535156 427.894531 764.765625 434.128906 763.84375 440.34375 C 762.921875 446.5625 761.847656 452.75 760.621094 458.914062 C 759.394531 465.078125 758.019531 471.207031 756.492188 477.304688 C 754.964844 483.402344 753.289062 489.457031 751.464844 495.46875 C 749.640625 501.484375 747.667969 507.449219 745.550781 513.367188 C 743.433594 519.28125 741.175781 525.144531 738.769531 530.949219 C 736.363281 536.757812 733.820312 542.5 731.132812 548.179688 C 728.445312 553.863281 725.621094 559.472656 722.65625 565.015625 C 719.695312 570.558594 716.597656 576.023438 713.367188 581.414062 C 710.136719 586.804688 706.777344 592.113281 703.285156 597.339844 C 699.792969 602.5625 696.175781 607.699219 692.429688 612.75 C 688.6875 617.796875 684.824219 622.75 680.835938 627.605469 C 676.847656 632.464844 672.746094 637.222656 668.523438 641.878906 C 664.304688 646.535156 659.972656 651.085938 655.527344 655.527344 C 651.085938 659.972656 646.535156 664.304688 641.878906 668.523438 C 637.222656 672.746094 632.464844 676.847656 627.605469 680.835938 C 622.75 684.824219 617.796875 688.6875 612.75 692.429688 C 607.699219 696.175781 602.5625 699.792969 597.339844 703.285156 C 592.113281 706.777344 586.804688 710.136719 581.414062 713.367188 C 576.023438 716.597656 570.558594 719.695312 565.015625 722.65625 C 559.472656 725.621094 553.863281 728.445312 548.179688 731.132812 C 542.5 733.820312 536.757812 736.363281 530.949219 738.769531 C 525.144531 741.175781 519.28125 743.433594 513.367188 745.550781 C 507.449219 747.667969 501.484375 749.640625 495.46875 751.464844 C 489.457031 753.289062 483.398438 754.964844 477.304688 756.492188 C 471.207031 758.019531 465.078125 759.394531 458.914062 760.621094 C 452.75 761.847656 446.5625 762.921875 440.34375 763.84375 C 434.128906 764.765625 427.894531 765.535156 421.636719 766.152344 C 415.382812 766.765625 409.117188 767.230469 402.84375 767.539062 C 396.566406 767.847656 390.285156 768 384 768 C 377.714844 768 371.433594 767.847656 365.15625 767.539062 C 358.882812 767.230469 352.617188 766.765625 346.363281 766.152344 C 340.105469 765.535156 333.871094 764.765625 327.65625 763.84375 C 321.4375 762.921875 315.25 761.847656 309.085938 760.621094 C 302.921875 759.394531 296.792969 758.019531 290.695312 756.492188 C 284.597656 754.964844 278.542969 753.289062 272.53125 751.464844 C 266.515625 749.640625 260.550781 747.667969 254.632812 745.550781 C 248.71875 743.433594 242.855469 741.175781 237.050781 738.769531 C 231.242188 736.363281 225.5 733.820312 219.820312 731.132812 C 214.136719 728.445312 208.527344 725.621094 202.984375 722.65625 C 197.441406 719.695312 191.976562 716.597656 186.585938 713.367188 C 181.195312 710.136719 175.886719 706.777344 170.660156 703.285156 C 165.4375 699.792969 160.300781 696.175781 155.25 692.429688 C 150.203125 688.6875 145.25 684.824219 140.394531 680.835938 C 135.535156 676.847656 130.777344 672.746094 126.121094 668.523438 C 121.464844 664.304688 116.914062 659.972656 112.472656 655.527344 C 108.027344 651.085938 103.695312 646.535156 99.476562 641.878906 C 95.253906 637.222656 91.152344 632.464844 87.164062 627.605469 C 83.175781 622.75 79.3125 617.796875 75.566406 612.75 C 71.824219 607.699219 68.207031 602.5625 64.714844 597.339844 C 61.222656 592.113281 57.863281 586.804688 54.632812 581.414062 C 51.402344 576.023438 48.304688 570.558594 45.34375 565.015625 C 42.378906 559.472656 39.554688 553.863281 36.867188 548.179688 C 34.179688 542.5 31.636719 536.757812 29.230469 530.949219 C 26.824219 525.144531 24.5625 519.28125 22.445312 513.367188 C 20.328125 507.449219 18.359375 501.484375 16.535156 495.46875 C 14.710938 489.457031 13.035156 483.398438 11.507812 477.304688 C 9.980469 471.207031 8.605469 465.078125 7.378906 458.914062 C 6.152344 452.75 5.078125 446.5625 4.15625 440.34375 C 3.234375 434.128906 2.464844 427.894531 1.847656 421.636719 C 1.234375 415.382812 0.769531 409.117188 0.460938 402.84375 C 0.152344 396.566406 0 390.285156 0 384 C 0 377.714844 0.152344 371.433594 0.460938 365.15625 C 0.769531 358.882812 1.234375 352.617188 1.847656 346.363281 C 2.464844 340.105469 3.234375 333.871094 4.15625 327.65625 C 5.078125 321.4375 6.152344 315.25 7.378906 309.085938 C 8.605469 302.921875 9.980469 296.792969 11.507812 290.695312 C 13.035156 284.597656 14.710938 278.542969 16.535156 272.53125 C 18.359375 266.515625 20.328125 260.550781 22.445312 254.632812 C 24.5625 248.71875 26.824219 242.855469 29.230469 237.050781 C 31.636719 231.242188 34.179688 225.5 36.867188 219.820312 C 39.554688 214.136719 42.378906 208.527344 45.34375 202.984375 C 48.304688 197.441406 51.402344 191.976562 54.632812 186.585938 C 57.863281 181.195312 61.222656 175.886719 64.714844 170.660156 C 68.207031 165.4375 71.824219 160.300781 75.566406 155.25 C 79.3125 150.203125 83.175781 145.25 87.164062 140.394531 C 91.152344 135.535156 95.253906 130.777344 99.476562 126.121094 C 103.695312 121.464844 108.027344 116.914062 112.472656 112.472656 C 116.914062 108.027344 121.464844 103.695312 126.121094 99.476562 C 130.777344 95.253906 135.535156 91.152344 140.394531 87.164062 C 145.25 83.175781 150.203125 79.3125 155.25 75.566406 C 160.300781 71.824219 165.4375 68.207031 170.660156 64.714844 C 175.886719 61.222656 181.195312 57.863281 186.585938 54.632812 C 191.976562 51.402344 197.441406 48.304688 202.984375 45.34375 C 208.527344 42.378906 214.136719 39.554688 219.820312 36.867188 C 225.5 34.179688 231.242188 31.636719 237.050781 29.230469 C 242.855469 26.824219 248.71875 24.5625 254.632812 22.445312 C 260.550781 20.328125 266.515625 18.359375 272.53125 16.535156 C 278.542969 14.710938 284.597656 13.035156 290.695312 11.507812 C 296.792969 9.980469 302.921875 8.605469 309.085938 7.378906 C 315.25 6.152344 321.4375 5.078125 327.65625 4.15625 C 333.871094 3.234375 340.105469 2.464844 346.363281 1.847656 C 352.617188 1.234375 358.882812 0.769531 365.15625 0.460938 C 371.433594 0.152344 377.714844 0 384 0 C 390.285156 0 396.566406 0.152344 402.84375 0.460938 C 409.117188 0.769531 415.382812 1.234375 421.636719 1.847656 C 427.894531 2.464844 434.128906 3.234375 440.34375 4.15625 C 446.5625 5.078125 452.75 6.152344 458.914062 7.378906 C 465.078125 8.605469 471.207031 9.980469 477.304688 11.507812 C 483.398438 13.035156 489.457031 14.710938 495.46875 16.535156 C 501.484375 18.359375 507.449219 20.328125 513.367188 22.445312 C 519.28125 24.5625 525.144531 26.824219 530.949219 29.230469 C 536.757812 31.636719 542.5 34.179688 548.179688 36.867188 C 553.863281 39.554688 559.472656 42.378906 565.015625 45.34375 C 570.558594 48.304688 576.023438 51.402344 581.414062 54.632812 C 586.804688 57.863281 592.113281 61.222656 597.339844 64.714844 C 602.5625 68.207031 607.699219 71.824219 612.75 75.566406 C 617.796875 79.3125 622.75 83.175781 627.605469 87.164062 C 632.464844 91.152344 637.222656 95.253906 641.878906 99.476562 C 646.535156 103.695312 651.085938 108.027344 655.527344 112.472656 C 659.972656 116.914062 664.304688 121.464844 668.523438 126.121094 C 672.746094 130.777344 676.847656 135.535156 680.835938 140.394531 C 684.824219 145.25 688.6875 150.203125 692.429688 155.25 C 696.175781 160.300781 699.792969 165.4375 703.285156 170.660156 C 706.777344 175.886719 710.136719 181.195312 713.367188 186.585938 C 716.597656 191.976562 719.695312 197.441406 722.65625 202.984375 C 725.621094 208.527344 728.445312 214.136719 731.132812 219.820312 C 733.820312 225.5 736.363281 231.242188 738.769531 237.050781 C 741.175781 242.855469 743.433594 248.71875 745.550781 254.632812 C 747.667969 260.550781 749.640625 266.515625 751.464844 272.53125 C 753.289062 278.542969 754.964844 284.597656 756.492188 290.695312 C 758.019531 296.792969 759.394531 302.921875 760.621094 309.085938 C 761.847656 315.25 762.921875 321.4375 763.84375 327.65625 C 764.765625 333.871094 765.535156 340.105469 766.152344 346.363281 C 766.765625 352.617188 767.230469 358.882812 767.539062 365.15625 C 767.84375 371.433594 768 377.714844 768 384 Z M 768 384" fill-opacity="1" fill-rule="nonzero"/>
  <path fill="#000000" d="M 420.972656 580.78125 L 345.636719 580.78125 C 345.003906 580.8125 344.375 580.8125 343.746094 580.777344 C 343.113281 580.746094 342.488281 580.683594 341.863281 580.59375 C 341.238281 580.5 340.621094 580.375 340.007812 580.222656 C 339.394531 580.070312 338.792969 579.886719 338.199219 579.671875 C 337.605469 579.460938 337.023438 579.21875 336.449219 578.949219 C 335.878906 578.679688 335.324219 578.382812 334.78125 578.058594 C 334.242188 577.734375 333.714844 577.386719 333.207031 577.011719 C 332.699219 576.636719 332.214844 576.238281 331.746094 575.8125 C 331.277344 575.390625 330.828125 574.945312 330.40625 574.480469 C 329.980469 574.011719 329.578125 573.527344 329.199219 573.019531 C 328.824219 572.515625 328.472656 571.992188 328.144531 571.453125 C 327.820312 570.910156 327.519531 570.355469 327.25 569.785156 C 326.976562 569.21875 326.734375 568.636719 326.519531 568.042969 C 326.304688 567.449219 326.117188 566.847656 325.960938 566.234375 C 325.804688 565.625 325.679688 565.007812 325.582031 564.382812 C 325.488281 563.757812 325.421875 563.132812 325.386719 562.5 L 318.578125 520.554688 C 309.996094 517.046875 301.992188 512.519531 294.5625 506.976562 L 252.492188 524.488281 C 250.285156 525.46875 247.976562 526 245.566406 526.089844 C 243.152344 526.179688 240.8125 525.820312 238.539062 525.007812 C 236.128906 524.230469 233.957031 523.027344 232.023438 521.394531 C 230.085938 519.765625 228.53125 517.828125 227.359375 515.585938 L 189.988281 450.726562 C 189.375 449.695312 188.863281 448.617188 188.449219 447.492188 C 188.035156 446.367188 187.726562 445.214844 187.523438 444.03125 C 187.320312 442.851562 187.230469 441.660156 187.246094 440.464844 C 187.261719 439.265625 187.386719 438.078125 187.625 436.902344 C 187.859375 435.726562 188.199219 434.582031 188.644531 433.46875 C 189.089844 432.355469 189.632812 431.292969 190.273438 430.28125 C 190.914062 429.269531 191.644531 428.324219 192.457031 427.445312 C 193.273438 426.566406 194.164062 425.769531 195.125 425.054688 L 229.015625 397.933594 C 228.394531 393.34375 228.136719 388.730469 228.25 384.101562 C 228.339844 380.53125 228.722656 376.992188 229.386719 373.480469 L 229.824219 370.894531 L 194.480469 342.695312 C 193.28125 341.734375 192.351562 340.5625 191.6875 339.175781 C 190.660156 337.636719 189.835938 335.992188 189.214844 334.246094 C 188.589844 332.503906 188.191406 330.710938 188.011719 328.867188 C 187.828125 327.023438 187.875 325.183594 188.148438 323.351562 C 188.417969 321.519531 188.910156 319.75 189.617188 318.039062 L 227.585938 250.195312 C 228.066406 249.371094 228.636719 248.617188 229.304688 247.9375 C 229.976562 247.054688 230.714844 246.234375 231.527344 245.476562 C 232.335938 244.71875 233.207031 244.035156 234.132812 243.425781 C 235.058594 242.816406 236.03125 242.289062 237.046875 241.84375 C 238.066406 241.398438 239.109375 241.042969 240.1875 240.777344 C 241.265625 240.511719 242.355469 240.335938 243.464844 240.257812 C 244.570312 240.175781 245.675781 240.1875 246.78125 240.296875 C 247.882812 240.402344 248.972656 240.601562 250.042969 240.894531 C 251.113281 241.1875 252.148438 241.570312 253.15625 242.039062 L 294.5625 259.28125 C 301.101562 254.667969 308.019531 250.710938 314.292969 247.152344 L 318.164062 244.9375 L 323.484375 204.359375 C 323.644531 203.207031 323.984375 202.109375 324.496094 201.066406 C 324.914062 200.125 325.390625 199.214844 325.929688 198.335938 C 326.46875 197.457031 327.066406 196.617188 327.71875 195.820312 C 328.367188 195.019531 329.070312 194.269531 329.824219 193.566406 C 330.574219 192.859375 331.371094 192.210938 332.210938 191.613281 C 333.050781 191.015625 333.925781 190.476562 334.835938 189.996094 C 335.75 189.515625 336.691406 189.097656 337.65625 188.746094 C 338.625 188.390625 339.613281 188.105469 340.617188 187.882812 C 341.625 187.660156 342.640625 187.507812 343.667969 187.421875 L 418.988281 187.421875 C 419.617188 187.390625 420.25 187.394531 420.878906 187.425781 C 421.507812 187.457031 422.136719 187.519531 422.761719 187.613281 C 423.386719 187.703125 424.003906 187.828125 424.617188 187.980469 C 425.230469 188.136719 425.832031 188.316406 426.425781 188.53125 C 427.023438 188.742188 427.605469 188.984375 428.175781 189.253906 C 428.746094 189.523438 429.304688 189.820312 429.84375 190.144531 C 430.386719 190.46875 430.914062 190.816406 431.421875 191.191406 C 431.929688 191.566406 432.417969 191.964844 432.886719 192.390625 C 433.355469 192.8125 433.800781 193.257812 434.226562 193.722656 C 434.652344 194.191406 435.054688 194.675781 435.433594 195.183594 C 435.808594 195.6875 436.164062 196.210938 436.488281 196.75 C 436.816406 197.292969 437.117188 197.847656 437.386719 198.414062 C 437.660156 198.984375 437.90625 199.566406 438.121094 200.160156 C 438.335938 200.753906 438.523438 201.355469 438.679688 201.96875 C 438.835938 202.578125 438.960938 203.199219 439.058594 203.820312 C 439.15625 204.445312 439.21875 205.074219 439.253906 205.703125 L 446.066406 247.648438 C 454.640625 251.167969 462.648438 255.695312 470.082031 261.230469 L 512.128906 243.714844 C 514.339844 242.746094 516.648438 242.21875 519.058594 242.128906 C 521.46875 242.042969 523.808594 242.398438 526.085938 243.195312 C 528.496094 243.972656 530.667969 245.171875 532.601562 246.804688 C 534.539062 248.433594 536.09375 250.371094 537.265625 252.617188 L 574.570312 317.480469 C 575.183594 318.507812 575.695312 319.585938 576.113281 320.710938 C 576.527344 321.835938 576.835938 322.988281 577.035156 324.171875 C 577.238281 325.351562 577.332031 326.542969 577.316406 327.742188 C 577.296875 328.941406 577.171875 330.125 576.9375 331.300781 C 576.703125 332.476562 576.363281 333.621094 575.917969 334.734375 C 575.472656 335.847656 574.925781 336.910156 574.285156 337.921875 C 573.644531 338.933594 572.917969 339.882812 572.101562 340.761719 C 571.285156 341.640625 570.398438 342.4375 569.4375 343.152344 L 535.523438 370.273438 C 536.144531 374.863281 536.402344 379.472656 536.289062 384.101562 C 536.207031 387.671875 535.832031 391.210938 535.171875 394.722656 C 535.027344 395.53125 534.882812 396.335938 534.757812 397.144531 L 571.941406 425.507812 C 572.886719 426.191406 573.757812 426.953125 574.558594 427.800781 C 575.359375 428.644531 576.074219 429.558594 576.703125 430.535156 C 577.332031 431.515625 577.863281 432.546875 578.300781 433.625 C 578.738281 434.703125 579.070312 435.8125 579.296875 436.957031 C 579.527344 438.097656 579.648438 439.25 579.660156 440.414062 C 579.671875 441.578125 579.574219 442.734375 579.371094 443.878906 C 579.167969 445.027344 578.859375 446.144531 578.445312 447.230469 C 578.03125 448.320312 577.519531 449.359375 576.910156 450.351562 L 538.960938 516.125 C 537.78125 518.25 536.25 520.078125 534.371094 521.613281 C 532.488281 523.148438 530.386719 524.277344 528.070312 525.007812 C 525.695312 525.828125 523.253906 526.167969 520.746094 526.027344 C 518.238281 525.890625 515.847656 525.277344 513.578125 524.199219 L 471.574219 506.707031 L 468.136719 508.960938 C 461.804688 513.328125 455.15625 517.152344 448.199219 520.433594 L 441.117188 564.21875 C 440.933594 565.265625 440.609375 566.265625 440.144531 567.222656 C 439.722656 568.160156 439.242188 569.066406 438.699219 569.9375 C 438.160156 570.8125 437.5625 571.644531 436.910156 572.4375 C 436.253906 573.230469 435.550781 573.980469 434.800781 574.679688 C 434.046875 575.378906 433.25 576.023438 432.410156 576.617188 C 431.570312 577.210938 430.695312 577.746094 429.785156 578.222656 C 428.875 578.699219 427.9375 579.117188 426.972656 579.46875 C 426.007812 579.820312 425.019531 580.105469 424.015625 580.324219 C 423.011719 580.542969 422 580.695312 420.972656 580.78125 Z M 345.820312 560.078125 L 420.789062 560.078125 C 420.351562 560.078125 420.558594 559.625 420.953125 559.023438 L 428.574219 511.40625 C 428.722656 510.472656 428.996094 509.574219 429.394531 508.714844 C 429.789062 507.855469 430.292969 507.066406 430.90625 506.34375 C 431.519531 505.625 432.21875 505 433.003906 504.46875 C 433.789062 503.941406 434.628906 503.527344 435.527344 503.226562 C 443.066406 500.269531 450.125 496.433594 456.707031 491.71875 C 459.566406 489.855469 462.378906 488.011719 465.21875 486.3125 C 465.910156 485.898438 466.644531 485.566406 467.414062 485.320312 C 468.1875 485.078125 468.976562 484.925781 469.785156 484.867188 C 470.589844 484.808594 471.394531 484.84375 472.191406 484.972656 C 472.992188 485.101562 473.765625 485.320312 474.511719 485.628906 L 522.128906 505.464844 L 558.441406 440.996094 L 517.78125 410.1875 C 517.140625 409.707031 516.5625 409.15625 516.046875 408.539062 C 515.53125 407.921875 515.09375 407.253906 514.734375 406.535156 C 514.375 405.816406 514.101562 405.066406 513.917969 404.285156 C 513.734375 403.503906 513.640625 402.710938 513.640625 401.90625 C 513.734375 398.335938 514.113281 394.796875 514.78125 391.285156 C 515.265625 388.902344 515.550781 386.492188 515.628906 384.0625 C 515.917969 379.152344 515.433594 374.320312 514.179688 369.570312 C 513.847656 368.566406 513.671875 367.535156 513.652344 366.476562 C 513.636719 365.417969 513.777344 364.382812 514.078125 363.371094 C 514.375 362.355469 514.820312 361.410156 515.410156 360.53125 C 516 359.652344 516.707031 358.882812 517.535156 358.222656 L 556.082031 327.375 L 519.023438 262.410156 L 472.523438 282.65625 C 471.667969 283.015625 470.777344 283.253906 469.859375 283.371094 C 468.9375 283.488281 468.015625 283.484375 467.097656 283.355469 C 466.175781 283.226562 465.289062 282.976562 464.4375 282.609375 C 463.585938 282.242188 462.796875 281.765625 462.070312 281.1875 C 453.554688 274.054688 444.042969 268.675781 433.542969 265.058594 C 432.644531 264.761719 431.800781 264.347656 431.015625 263.816406 C 430.230469 263.289062 429.535156 262.664062 428.921875 261.941406 C 428.308594 261.222656 427.800781 260.429688 427.40625 259.570312 C 427.007812 258.710938 426.734375 257.816406 426.585938 256.882812 L 418.800781 208.125 L 343.875 208.125 C 344.25 208.125 344.082031 208.539062 343.75 209.058594 L 338.078125 252.535156 C 337.878906 254.105469 337.347656 255.550781 336.480469 256.878906 C 335.617188 258.203125 334.507812 259.273438 333.152344 260.089844 C 330.417969 261.726562 327.519531 263.363281 324.582031 265.039062 C 316.878906 269.171875 309.539062 273.863281 302.550781 279.117188 C 301.832031 279.6875 301.050781 280.152344 300.207031 280.515625 C 299.363281 280.878906 298.484375 281.125 297.574219 281.253906 C 296.667969 281.382812 295.753906 281.390625 294.84375 281.277344 C 293.933594 281.164062 293.050781 280.933594 292.199219 280.585938 L 245.390625 261.230469 L 244.832031 261.683594 L 208.3125 327.167969 L 247.066406 358.222656 C 248.292969 359.207031 249.242188 360.402344 249.921875 361.820312 C 250.601562 363.234375 250.941406 364.726562 250.941406 366.296875 C 250.855469 369.871094 250.476562 373.410156 249.800781 376.917969 C 248.402344 384.230469 248.609375 391.496094 250.421875 398.71875 C 250.753906 399.722656 250.929688 400.753906 250.949219 401.808594 C 250.964844 402.867188 250.824219 403.902344 250.527344 404.917969 C 250.226562 405.933594 249.78125 406.878906 249.191406 407.753906 C 248.601562 408.632812 247.894531 409.402344 247.066406 410.0625 L 208.5 440.910156 L 245.597656 505.796875 L 292.097656 485.546875 C 292.949219 485.207031 293.832031 484.980469 294.742188 484.871094 C 295.652344 484.761719 296.5625 484.769531 297.46875 484.898438 C 298.378906 485.027344 299.253906 485.273438 300.097656 485.632812 C 300.941406 485.988281 301.726562 486.453125 302.449219 487.015625 C 310.96875 494.140625 320.480469 499.519531 330.976562 503.144531 C 331.875 503.445312 332.71875 503.855469 333.503906 504.386719 C 334.285156 504.914062 334.984375 505.539062 335.597656 506.261719 C 336.210938 506.984375 336.71875 507.773438 337.113281 508.632812 C 337.511719 509.492188 337.785156 510.386719 337.933594 511.324219 Z M 559.519531 441.863281 C 559.964844 442.332031 560.472656 442.714844 561.050781 443.003906 Z M 559.519531 441.863281" fill-opacity="1" fill-rule="nonzero"/>
  <path fill="#000000" d="M 383.316406 478.15625 C 381.777344 478.15625 380.238281 478.117188 378.699219 478.042969 C 377.164062 477.96875 375.628906 477.855469 374.097656 477.703125 C 372.566406 477.550781 371.039062 477.363281 369.515625 477.136719 C 367.992188 476.914062 366.476562 476.648438 364.964844 476.347656 C 363.457031 476.050781 361.957031 475.710938 360.460938 475.335938 C 358.96875 474.964844 357.484375 474.554688 356.011719 474.105469 C 354.539062 473.660156 353.078125 473.175781 351.628906 472.660156 C 350.179688 472.140625 348.746094 471.585938 347.324219 470.996094 C 345.898438 470.40625 344.492188 469.785156 343.101562 469.125 C 341.710938 468.46875 340.335938 467.777344 338.976562 467.050781 C 337.621094 466.324219 336.28125 465.566406 334.960938 464.773438 C 333.640625 463.984375 332.339844 463.160156 331.0625 462.304688 C 329.78125 461.449219 328.523438 460.5625 327.289062 459.648438 C 326.050781 458.730469 324.835938 457.785156 323.648438 456.808594 C 322.457031 455.832031 321.292969 454.824219 320.152344 453.792969 C 319.011719 452.757812 317.898438 451.695312 316.808594 450.609375 C 315.71875 449.519531 314.660156 448.40625 313.625 447.265625 C 312.59375 446.125 311.585938 444.960938 310.609375 443.769531 C 309.632812 442.578125 308.6875 441.367188 307.769531 440.128906 C 306.851562 438.894531 305.96875 437.636719 305.113281 436.355469 C 304.257812 435.074219 303.433594 433.777344 302.640625 432.457031 C 301.851562 431.136719 301.09375 429.796875 300.367188 428.4375 C 299.640625 427.082031 298.949219 425.707031 298.292969 424.316406 C 297.632812 422.925781 297.007812 421.515625 296.421875 420.09375 C 295.832031 418.671875 295.277344 417.238281 294.757812 415.789062 C 294.242188 414.339844 293.757812 412.878906 293.3125 411.40625 C 292.863281 409.933594 292.453125 408.449219 292.078125 406.957031 C 291.707031 405.460938 291.367188 403.960938 291.066406 402.453125 C 290.769531 400.941406 290.503906 399.425781 290.277344 397.902344 C 290.054688 396.378906 289.863281 394.851562 289.714844 393.320312 C 289.5625 391.789062 289.449219 390.253906 289.375 388.71875 C 289.300781 387.179688 289.261719 385.640625 289.261719 384.101562 C 289.261719 382.5625 289.300781 381.023438 289.375 379.488281 C 289.449219 377.949219 289.5625 376.414062 289.714844 374.882812 C 289.863281 373.351562 290.054688 371.824219 290.277344 370.300781 C 290.503906 368.777344 290.769531 367.261719 291.066406 365.753906 C 291.367188 364.242188 291.707031 362.742188 292.078125 361.25 C 292.453125 359.753906 292.863281 358.273438 293.3125 356.800781 C 293.757812 355.328125 294.242188 353.867188 294.757812 352.417969 C 295.277344 350.96875 295.832031 349.53125 296.421875 348.109375 C 297.007812 346.6875 297.632812 345.28125 298.292969 343.890625 C 298.949219 342.496094 299.640625 341.121094 300.367188 339.765625 C 301.09375 338.40625 301.851562 337.070312 302.640625 335.75 C 303.433594 334.429688 304.257812 333.128906 305.113281 331.847656 C 305.96875 330.570312 306.851562 329.308594 307.769531 328.074219 C 308.6875 326.835938 309.632812 325.625 310.609375 324.433594 C 311.585938 323.246094 312.59375 322.078125 313.625 320.9375 C 314.660156 319.796875 315.71875 318.683594 316.808594 317.597656 C 317.898438 316.507812 319.011719 315.445312 320.152344 314.414062 C 321.292969 313.378906 322.457031 312.375 323.648438 311.398438 C 324.835938 310.421875 326.050781 309.472656 327.289062 308.558594 C 328.523438 307.640625 329.78125 306.753906 331.0625 305.898438 C 332.339844 305.042969 333.640625 304.21875 334.960938 303.429688 C 336.28125 302.636719 337.621094 301.878906 338.976562 301.152344 C 340.335938 300.429688 341.710938 299.734375 343.101562 299.078125 C 344.492188 298.421875 345.898438 297.796875 347.324219 297.207031 C 348.746094 296.617188 350.179688 296.0625 351.628906 295.546875 C 353.078125 295.027344 354.539062 294.542969 356.011719 294.097656 C 357.484375 293.652344 358.96875 293.242188 360.460938 292.867188 C 361.957031 292.492188 363.457031 292.15625 364.964844 291.855469 C 366.476562 291.554688 367.992188 291.292969 369.515625 291.066406 C 371.039062 290.839844 372.566406 290.652344 374.097656 290.5 C 375.628906 290.351562 377.164062 290.238281 378.699219 290.160156 C 380.238281 290.085938 381.777344 290.046875 383.316406 290.046875 C 384.855469 290.046875 386.394531 290.085938 387.929688 290.160156 C 389.46875 290.238281 391.003906 290.351562 392.535156 290.5 C 394.066406 290.652344 395.59375 290.839844 397.117188 291.066406 C 398.636719 291.292969 400.15625 291.554688 401.664062 291.855469 C 403.175781 292.15625 404.675781 292.492188 406.167969 292.867188 C 407.660156 293.242188 409.144531 293.652344 410.617188 294.097656 C 412.089844 294.542969 413.550781 295.027344 415 295.546875 C 416.449219 296.066406 417.886719 296.617188 419.308594 297.207031 C 420.730469 297.796875 422.136719 298.421875 423.527344 299.078125 C 424.921875 299.734375 426.292969 300.429688 427.652344 301.152344 C 429.011719 301.878906 430.347656 302.636719 431.667969 303.429688 C 432.988281 304.21875 434.289062 305.042969 435.570312 305.898438 C 436.847656 306.753906 438.105469 307.640625 439.34375 308.558594 C 440.578125 309.472656 441.792969 310.421875 442.984375 311.398438 C 444.171875 312.375 445.335938 313.378906 446.476562 314.414062 C 447.617188 315.445312 448.734375 316.507812 449.820312 317.597656 C 450.910156 318.683594 451.972656 319.796875 453.003906 320.9375 C 454.039062 322.078125 455.042969 323.246094 456.019531 324.433594 C 456.996094 325.625 457.945312 326.835938 458.859375 328.074219 C 459.777344 329.308594 460.664062 330.570312 461.519531 331.847656 C 462.375 333.128906 463.195312 334.429688 463.988281 335.75 C 464.78125 337.070312 465.539062 338.40625 466.265625 339.765625 C 466.988281 341.121094 467.679688 342.496094 468.339844 343.890625 C 468.996094 345.28125 469.621094 346.6875 470.210938 348.109375 C 470.800781 349.53125 471.351562 350.96875 471.871094 352.417969 C 472.390625 353.867188 472.871094 355.328125 473.320312 356.800781 C 473.765625 358.273438 474.175781 359.753906 474.550781 361.25 C 474.925781 362.742188 475.261719 364.242188 475.5625 365.753906 C 475.863281 367.261719 476.125 368.777344 476.351562 370.300781 C 476.578125 371.824219 476.765625 373.351562 476.917969 374.882812 C 477.066406 376.414062 477.179688 377.949219 477.257812 379.488281 C 477.332031 381.023438 477.371094 382.5625 477.371094 384.101562 C 477.367188 385.640625 477.328125 387.179688 477.25 388.714844 C 477.175781 390.253906 477.058594 391.785156 476.90625 393.316406 C 476.753906 394.847656 476.566406 396.375 476.339844 397.898438 C 476.109375 399.417969 475.847656 400.933594 475.546875 402.445312 C 475.242188 403.953125 474.90625 405.453125 474.53125 406.945312 C 474.15625 408.4375 473.746094 409.921875 473.296875 411.394531 C 472.847656 412.867188 472.367188 414.324219 471.847656 415.773438 C 471.328125 417.222656 470.773438 418.65625 470.183594 420.078125 C 469.59375 421.5 468.96875 422.90625 468.308594 424.296875 C 467.652344 425.6875 466.960938 427.0625 466.234375 428.417969 C 465.507812 429.773438 464.75 431.113281 463.957031 432.433594 C 463.164062 433.753906 462.34375 435.050781 461.488281 436.332031 C 460.632812 437.609375 459.746094 438.867188 458.828125 440.105469 C 457.910156 441.339844 456.964844 442.550781 455.988281 443.742188 C 455.011719 444.929688 454.007812 446.097656 452.972656 447.234375 C 451.941406 448.375 450.878906 449.488281 449.792969 450.578125 C 448.703125 451.667969 447.589844 452.726562 446.449219 453.761719 C 445.308594 454.792969 444.144531 455.800781 442.953125 456.777344 C 441.765625 457.75 440.554688 458.699219 439.316406 459.617188 C 438.082031 460.53125 436.824219 461.417969 435.542969 462.273438 C 434.265625 463.128906 432.964844 463.953125 431.644531 464.742188 C 430.328125 465.535156 428.988281 466.292969 427.632812 467.019531 C 426.273438 467.746094 424.902344 468.4375 423.511719 469.097656 C 422.121094 469.753906 420.714844 470.378906 419.292969 470.96875 C 417.871094 471.558594 416.4375 472.113281 414.988281 472.632812 C 413.539062 473.152344 412.078125 473.636719 410.605469 474.082031 C 409.132812 474.53125 407.652344 474.941406 406.160156 475.316406 C 404.667969 475.691406 403.167969 476.03125 401.65625 476.332031 C 400.148438 476.632812 398.632812 476.898438 397.109375 477.125 C 395.589844 477.351562 394.0625 477.542969 392.53125 477.695312 C 391 477.847656 389.464844 477.960938 387.929688 478.039062 C 386.390625 478.117188 384.855469 478.15625 383.316406 478.15625 Z M 383.316406 310.75 C 382.113281 310.75 380.914062 310.78125 379.714844 310.839844 C 378.515625 310.898438 377.320312 310.988281 376.125 311.105469 C 374.929688 311.222656 373.738281 311.367188 372.550781 311.542969 C 371.363281 311.722656 370.183594 311.925781 369.003906 312.160156 C 367.828125 312.394531 366.65625 312.65625 365.492188 312.949219 C 364.328125 313.242188 363.171875 313.5625 362.023438 313.910156 C 360.875 314.257812 359.734375 314.632812 358.605469 315.039062 C 357.472656 315.441406 356.355469 315.875 355.246094 316.335938 C 354.136719 316.792969 353.039062 317.28125 351.953125 317.792969 C 350.867188 318.308594 349.796875 318.847656 348.738281 319.414062 C 347.679688 319.976562 346.636719 320.570312 345.605469 321.1875 C 344.574219 321.804688 343.5625 322.445312 342.5625 323.113281 C 341.566406 323.78125 340.585938 324.472656 339.621094 325.1875 C 338.65625 325.902344 337.710938 326.640625 336.78125 327.402344 C 335.855469 328.164062 334.945312 328.945312 334.054688 329.753906 C 333.167969 330.558594 332.296875 331.386719 331.449219 332.234375 C 330.597656 333.082031 329.773438 333.953125 328.964844 334.84375 C 328.160156 335.730469 327.375 336.640625 326.613281 337.570312 C 325.851562 338.496094 325.113281 339.441406 324.398438 340.40625 C 323.683594 341.371094 322.992188 342.351562 322.324219 343.351562 C 321.660156 344.347656 321.015625 345.363281 320.398438 346.390625 C 319.78125 347.421875 319.191406 348.464844 318.625 349.523438 C 318.058594 350.582031 317.519531 351.65625 317.007812 352.742188 C 316.492188 353.824219 316.007812 354.921875 315.546875 356.03125 C 315.089844 357.140625 314.65625 358.261719 314.253906 359.390625 C 313.847656 360.519531 313.472656 361.660156 313.121094 362.808594 C 312.773438 363.957031 312.453125 365.113281 312.164062 366.277344 C 311.871094 367.445312 311.609375 368.613281 311.375 369.792969 C 311.140625 370.96875 310.933594 372.152344 310.757812 373.339844 C 310.582031 374.527344 310.433594 375.71875 310.316406 376.914062 C 310.199219 378.105469 310.113281 379.304688 310.050781 380.503906 C 309.992188 381.703125 309.964844 382.902344 309.964844 384.101562 C 309.964844 385.300781 309.992188 386.503906 310.050781 387.703125 C 310.113281 388.898438 310.199219 390.097656 310.316406 391.292969 C 310.433594 392.488281 310.582031 393.675781 310.757812 394.863281 C 310.933594 396.050781 311.140625 397.234375 311.375 398.414062 C 311.609375 399.589844 311.871094 400.761719 312.164062 401.925781 C 312.453125 403.089844 312.773438 404.246094 313.121094 405.394531 C 313.472656 406.542969 313.847656 407.683594 314.253906 408.8125 C 314.65625 409.945312 315.089844 411.0625 315.546875 412.171875 C 316.007812 413.28125 316.492188 414.378906 317.007812 415.464844 C 317.519531 416.550781 318.058594 417.621094 318.625 418.679688 C 319.191406 419.738281 319.78125 420.78125 320.398438 421.8125 C 321.015625 422.84375 321.660156 423.855469 322.324219 424.855469 C 322.992188 425.851562 323.683594 426.832031 324.398438 427.796875 C 325.113281 428.761719 325.851562 429.707031 326.613281 430.636719 C 327.375 431.5625 328.160156 432.472656 328.964844 433.363281 C 329.773438 434.25 330.597656 435.121094 331.449219 435.96875 C 332.296875 436.816406 333.167969 437.644531 334.054688 438.453125 C 334.945312 439.257812 335.855469 440.042969 336.78125 440.804688 C 337.710938 441.566406 338.65625 442.304688 339.621094 443.019531 C 340.585938 443.734375 341.566406 444.425781 342.5625 445.089844 C 343.5625 445.757812 344.574219 446.398438 345.605469 447.015625 C 346.636719 447.632812 347.679688 448.226562 348.738281 448.792969 C 349.796875 449.359375 350.867188 449.898438 351.953125 450.410156 C 353.039062 450.925781 354.136719 451.410156 355.246094 451.871094 C 356.355469 452.328125 357.472656 452.761719 358.605469 453.164062 C 359.734375 453.570312 360.875 453.945312 362.023438 454.292969 C 363.171875 454.644531 364.328125 454.964844 365.492188 455.253906 C 366.65625 455.546875 367.828125 455.808594 369.003906 456.042969 C 370.183594 456.277344 371.363281 456.484375 372.550781 456.660156 C 373.738281 456.835938 374.929688 456.980469 376.125 457.101562 C 377.320312 457.21875 378.515625 457.304688 379.714844 457.363281 C 380.914062 457.425781 382.113281 457.453125 383.316406 457.453125 C 384.515625 457.453125 385.714844 457.425781 386.914062 457.363281 C 388.113281 457.304688 389.308594 457.21875 390.503906 457.101562 C 391.699219 456.984375 392.890625 456.835938 394.078125 456.660156 C 395.265625 456.484375 396.449219 456.277344 397.625 456.042969 C 398.804688 455.808594 399.972656 455.546875 401.136719 455.253906 C 402.300781 454.964844 403.460938 454.644531 404.609375 454.292969 C 405.757812 453.945312 406.894531 453.570312 408.027344 453.164062 C 409.15625 452.761719 410.277344 452.328125 411.386719 451.871094 C 412.496094 451.410156 413.59375 450.925781 414.675781 450.410156 C 415.761719 449.898438 416.835938 449.359375 417.894531 448.792969 C 418.953125 448.226562 419.996094 447.632812 421.023438 447.015625 C 422.054688 446.398438 423.070312 445.757812 424.066406 445.089844 C 425.066406 444.425781 426.046875 443.734375 427.011719 443.019531 C 427.976562 442.304688 428.921875 441.566406 429.847656 440.804688 C 430.777344 440.042969 431.6875 439.257812 432.574219 438.453125 C 433.464844 437.644531 434.332031 436.816406 435.183594 435.96875 C 436.03125 435.121094 436.859375 434.25 437.664062 433.363281 C 438.472656 432.472656 439.253906 431.5625 440.015625 430.636719 C 440.777344 429.707031 441.515625 428.761719 442.230469 427.796875 C 442.945312 426.832031 443.636719 425.851562 444.304688 424.855469 C 444.972656 423.855469 445.613281 422.84375 446.230469 421.8125 C 446.847656 420.78125 447.441406 419.738281 448.003906 418.679688 C 448.570312 417.621094 449.109375 416.550781 449.625 415.464844 C 450.136719 414.378906 450.625 413.28125 451.082031 412.171875 C 451.542969 411.0625 451.972656 409.945312 452.378906 408.8125 C 452.78125 407.683594 453.160156 406.542969 453.507812 405.394531 C 453.855469 404.246094 454.175781 403.089844 454.46875 401.925781 C 454.761719 400.761719 455.023438 399.589844 455.257812 398.414062 C 455.492188 397.234375 455.695312 396.050781 455.871094 394.863281 C 456.046875 393.675781 456.195312 392.488281 456.3125 391.292969 C 456.429688 390.097656 456.519531 388.898438 456.578125 387.703125 C 456.636719 386.503906 456.667969 385.300781 456.667969 384.101562 C 456.664062 382.902344 456.632812 381.703125 456.574219 380.503906 C 456.515625 379.304688 456.425781 378.109375 456.304688 376.914062 C 456.1875 375.722656 456.039062 374.53125 455.863281 373.34375 C 455.683594 372.15625 455.480469 370.976562 455.242188 369.796875 C 455.007812 368.621094 454.746094 367.449219 454.453125 366.285156 C 454.160156 365.121094 453.839844 363.96875 453.488281 362.820312 C 453.140625 361.671875 452.761719 360.53125 452.359375 359.402344 C 451.953125 358.273438 451.519531 357.152344 451.0625 356.042969 C 450.601562 354.9375 450.113281 353.839844 449.601562 352.753906 C 449.085938 351.671875 448.546875 350.597656 447.980469 349.539062 C 447.414062 348.484375 446.824219 347.4375 446.207031 346.410156 C 445.589844 345.382812 444.945312 344.367188 444.277344 343.371094 C 443.613281 342.371094 442.921875 341.390625 442.207031 340.429688 C 441.492188 339.464844 440.753906 338.519531 439.992188 337.589844 C 439.230469 336.664062 438.445312 335.753906 437.640625 334.867188 C 436.835938 333.976562 436.007812 333.109375 435.160156 332.257812 C 434.308594 331.410156 433.441406 330.582031 432.550781 329.777344 C 431.664062 328.972656 430.753906 328.1875 429.828125 327.425781 C 428.898438 326.664062 427.953125 325.925781 426.988281 325.210938 C 426.027344 324.496094 425.046875 323.804688 424.046875 323.136719 C 423.050781 322.472656 422.035156 321.828125 421.007812 321.210938 C 419.976562 320.59375 418.933594 320.003906 417.875 319.4375 C 416.820312 318.871094 415.746094 318.332031 414.664062 317.816406 C 413.578125 317.304688 412.480469 316.816406 411.371094 316.355469 C 410.265625 315.898438 409.144531 315.464844 408.015625 315.058594 C 406.886719 314.65625 405.746094 314.277344 404.597656 313.929688 C 403.449219 313.578125 402.292969 313.257812 401.128906 312.964844 C 399.96875 312.671875 398.796875 312.410156 397.621094 312.175781 C 396.441406 311.9375 395.261719 311.734375 394.074219 311.554688 C 392.886719 311.378906 391.695312 311.230469 390.503906 311.113281 C 389.308594 310.992188 388.113281 310.902344 386.914062 310.84375 C 385.714844 310.78125 384.515625 310.753906 383.316406 310.75 Z M 383.316406 310.75" fill-opacity="1" fill-rule="nonzero"/>
</svg>
