<svg xmlns="http://www.w3.org/2000/svg" version="1.1" width="100%" height="100%" x="0" y="0" viewBox="0 0 64 64" style="enable-background:new 0 0 512 512" xml:space="preserve" xmlns:xml="http://www.w3.org/XML/1998/namespace" class="" preserveAspectRatio="xMidYMid">
  <g transform="matrix(1,0,0,1,0,0)">
    <g id="Checkmark">
      <path d="m32 8a24 24 0 1 0 24 24 24.03187 24.03187 0 0 0 -24-24zm13.41 17.41-15 15a1.97983 1.97983 0 0 1 -2.82 0l-7-7a1.994 1.994 0 0 1 2.82-2.82l5.59 5.58 13.59-13.58a1.994 1.994 0 0 1 2.82 2.82z" fill="#ebf4ff" data-original="#88c941" class=""/>
      <path d="m45.41 25.41-15 15a1.97983 1.97983 0 0 1 -2.82 0l-7-7a1.994 1.994 0 0 1 2.82-2.82l5.59 5.58 13.59-13.58a1.994 1.994 0 0 1 2.82 2.82z" fill="#14d93c" data-original="#ffffff" class=""/>
    </g>
  </g>
</svg>
